<?xml version="1.0" standalone="no"?>
<!DOCTYPE svg PUBLIC "-//W3C//DTD SVG 20010904//EN"
 "http://www.w3.org/TR/2001/REC-SVG-20010904/DTD/svg10.dtd">
<svg version="1.0" xmlns="http://www.w3.org/2000/svg"
 width="512.000000pt" height="512.000000pt" viewBox="0 0 512.000000 512.000000"
 preserveAspectRatio="xMidYMid meet">
<metadata>
Created by potrace 1.14, written by Peter Selinger 2001-2017
</metadata>
<g transform="translate(0.000000,512.000000) scale(0.100000,-0.100000)"
fill="#000000" stroke="none">
<path d="M2462 4176 c2 -8 -1 -14 -5 -13 -5 1 -13 -6 -18 -15 -6 -11 -22 -18
-39 -18 -16 0 -32 -5 -36 -11 -3 -6 -15 -9 -25 -6 -10 3 -23 -1 -30 -9 -7 -8
-30 -14 -56 -14 -30 0 -59 -9 -89 -26 -25 -15 -47 -24 -50 -21 -8 7 -64 -13
-64 -23 0 -4 -31 -16 -70 -25 -45 -11 -70 -22 -70 -31 0 -8 -6 -14 -13 -14 -7
0 -28 -11 -47 -25 -20 -15 -41 -23 -52 -19 -10 3 -18 1 -18 -5 0 -6 -17 -18
-37 -26 -21 -9 -57 -35 -80 -58 -23 -23 -46 -46 -52 -52 -30 -27 -81 -87 -81
-95 0 -5 -10 -18 -22 -30 -12 -11 -18 -20 -14 -20 4 0 -13 -26 -38 -58 -25
-32 -46 -63 -46 -69 0 -5 -11 -22 -25 -37 -13 -14 -19 -26 -12 -26 7 -1 -1 -8
-16 -16 -21 -11 -27 -21 -24 -35 3 -12 -2 -24 -15 -33 -14 -10 -16 -15 -6 -19
10 -4 10 -6 1 -6 -7 -1 -13 -8 -13 -16 0 -19 -50 -65 -72 -65 -26 0 -48 11
-42 21 3 5 15 9 27 9 26 0 52 46 37 64 -5 7 -5 17 0 26 19 29 11 40 -22 33
-42 -7 -43 -9 -29 -27 16 -19 -4 -32 -24 -16 -8 7 -15 9 -15 5 0 -4 -11 0 -24
9 -14 9 -31 13 -39 10 -8 -3 -18 -1 -22 5 -3 6 -1 11 5 11 6 0 8 4 5 10 -3 5
-25 8 -48 6 -33 -3 -42 -8 -42 -22 0 -13 8 -20 27 -22 32 -4 35 -18 12 -51
-14 -19 -14 -25 -3 -32 8 -5 14 -19 14 -31 0 -13 5 -22 12 -21 7 2 10 -3 8
-10 -2 -6 2 -21 11 -32 12 -16 17 -17 23 -7 7 11 9 10 14 -3 4 -9 3 -13 -3
-10 -6 3 -10 -1 -10 -9 0 -9 4 -16 9 -16 5 0 8 -12 7 -26 -2 -21 -9 -28 -30
-30 -23 -2 -24 -1 -11 12 8 9 15 19 15 22 0 11 -58 72 -69 73 -20 3 -26 5 -48
17 -12 7 -35 13 -50 14 -15 1 -32 4 -38 7 -23 13 -35 8 -41 -16 -5 -18 -9 -21
-15 -11 -6 9 -9 7 -9 -9 0 -13 4 -23 8 -23 4 0 8 -8 9 -17 1 -15 -8 -18 -60
-18 -34 0 -72 6 -84 13 -12 7 -31 12 -42 12 -25 0 -36 17 -22 34 6 7 8 16 4
20 -4 4 -7 19 -8 34 0 16 -5 26 -12 24 -9 -1 -13 10 -13 33 0 19 -4 35 -10 35
-5 0 -10 -11 -10 -25 0 -14 -4 -25 -10 -25 -5 0 -10 5 -10 12 0 6 -3 9 -6 5
-4 -3 -13 1 -21 9 -8 8 -19 11 -25 8 -6 -4 -6 -10 1 -17 20 -20 12 -27 -31
-27 -24 0 -60 -3 -80 -6 -35 -6 -38 -9 -38 -40 0 -19 5 -34 11 -34 7 0 9 -8 4
-22 -22 -71 -8 -103 42 -95 27 4 27 5 5 12 -27 9 -29 25 -2 25 12 0 20 7 20
16 0 14 -3 14 -15 4 -9 -8 -15 -9 -15 -2 0 6 5 14 10 17 15 9 12 25 -4 25 -21
0 -31 21 -15 31 25 15 39 10 39 -15 0 -30 17 -43 33 -26 9 9 7 15 -7 26 -11 7
-17 17 -13 20 13 13 60 6 69 -10 5 -9 13 -14 19 -11 5 4 9 -6 8 -22 0 -15 -3
-22 -6 -15 -9 23 -23 12 -23 -18 0 -18 6 -33 15 -36 8 -4 15 -11 15 -18 0 -16
48 -37 53 -22 3 8 10 8 25 -1 13 -8 23 -9 27 -3 10 16 35 12 35 -6 0 -8 4 -13
9 -10 5 3 15 -2 22 -12 13 -15 12 -16 -3 -3 -16 12 -18 11 -18 -3 0 -17 -26
-23 -32 -6 -2 5 -14 11 -28 12 -31 4 -40 -27 -10 -35 14 -4 20 -13 19 -34 0
-27 -1 -27 -9 -5 -12 27 -24 29 -15 2 4 -13 2 -20 -7 -21 -12 -1 27 -15 65
-24 14 -3 17 0 12 15 -9 29 14 24 25 -5 7 -18 14 -23 26 -18 14 5 16 3 11 -11
-4 -10 -7 -20 -7 -23 0 -3 -11 2 -25 11 -14 9 -25 12 -25 7 0 -5 14 -15 30
-23 37 -16 39 -28 3 -22 -33 6 -43 -10 -32 -50 13 -47 11 -86 -5 -86 -8 0 -16
6 -19 14 -9 22 -61 29 -178 21 -128 -8 -123 -3 -111 -135 l7 -85 105 4 c97 3
106 2 125 -19 16 -17 17 -23 6 -30 -8 -4 -24 -4 -37 2 -17 8 -28 7 -45 -6 -13
-9 -34 -16 -47 -16 -13 0 -43 -5 -68 -11 l-44 -11 0 -84 0 -84 -30 0 c-27 0
-30 3 -30 33 0 26 -6 36 -32 52 -18 10 -27 20 -20 23 6 2 19 -4 28 -12 8 -9
20 -14 25 -11 14 9 11 35 -5 35 -20 0 -28 52 -10 66 16 13 19 44 4 44 -5 0
-10 -4 -10 -9 0 -5 -27 -12 -60 -16 l-60 -7 -6 -39 c-4 -22 -12 -39 -20 -39
-7 0 -14 -8 -17 -17 -3 -15 -4 -14 -4 2 -1 43 -3 50 -11 39 -4 -6 -19 -14 -34
-18 -21 -5 -28 -3 -28 9 0 8 -7 15 -15 15 -16 0 -20 -36 -6 -58 10 -17 21 -17
31 -2 4 7 10 -2 15 -22 l9 -33 3 33 c3 17 8 32 12 32 14 0 21 -42 10 -61 -5
-10 -9 -42 -9 -73 0 -67 4 -69 143 -44 134 24 273 34 289 20 7 -6 29 -12 48
-14 27 -2 36 -8 38 -25 2 -13 10 -23 18 -23 8 0 23 -9 34 -20 26 -26 40 -25
40 1 0 13 -4 18 -13 13 -8 -5 -9 -4 -2 4 6 6 20 9 31 6 16 -4 19 -12 16 -35
-3 -23 0 -29 14 -30 11 0 14 -3 6 -6 -6 -2 -10 -9 -6 -14 3 -5 1 -9 -4 -9 -5
0 -12 -11 -14 -24 -4 -17 -1 -23 8 -19 18 7 30 -43 15 -61 -7 -8 -8 -17 -3
-20 17 -10 22 7 22 79 l0 71 40 2 c35 3 41 -1 50 -23 11 -30 26 -32 40 -5 13
25 35 16 50 -21 7 -16 16 -29 20 -29 11 0 33 -57 26 -69 -4 -5 -2 -12 4 -16 6
-4 10 4 10 18 0 27 16 37 60 37 16 0 30 7 34 15 4 10 -1 15 -14 15 -10 0 -24
8 -29 18 -10 16 -10 16 -11 -2 0 -12 -5 -16 -16 -12 -9 3 -20 6 -25 6 -13 0
-11 13 5 35 11 15 17 17 28 7 8 -6 28 -13 44 -15 37 -4 60 -17 46 -26 -7 -4
-8 -30 -2 -76 5 -44 5 -74 -1 -82 -7 -7 -6 -18 2 -31 8 -12 9 -30 4 -48 -13
-47 -13 -68 -2 -82 8 -10 7 -19 -1 -32 -6 -11 -9 -26 -6 -35 3 -8 1 -15 -4
-15 -6 0 -14 9 -17 20 -5 17 -13 19 -43 15 -211 -30 -274 -35 -288 -24 -7 6
-15 -4 -23 -31 -6 -21 -16 -42 -22 -46 -6 -3 -3 -11 8 -19 15 -11 15 -17 5
-39 -10 -22 -9 -26 4 -26 14 0 14 -3 4 -15 -10 -12 -10 -15 3 -15 17 0 26 -18
20 -37 -3 -7 -11 -13 -19 -13 -17 0 -19 -20 -1 -20 6 0 4 -5 -5 -11 -10 -5
-18 -15 -18 -20 0 -6 4 -8 8 -5 5 3 16 -4 25 -14 11 -13 13 -22 6 -26 -8 -4
-8 -9 1 -14 6 -4 13 -20 15 -36 2 -16 6 -50 9 -76 3 -26 15 -77 27 -114 21
-65 22 -66 53 -61 32 4 99 20 176 42 l45 12 5 78 c4 61 2 79 -10 86 -13 7 -12
8 3 9 14 0 17 7 14 38 -4 34 -7 37 -38 40 -63 5 -64 11 -14 50 l48 37 -32 3
c-23 2 -40 -3 -56 -18 -24 -23 -57 -18 -53 8 3 14 -10 16 -84 16 l-86 0 -6 29
c-9 44 -7 77 4 77 12 0 9 22 -5 32 -6 5 -3 14 7 24 16 16 22 17 80 2 48 -13
55 -16 28 -15 -19 0 -46 -3 -58 -7 -23 -8 -23 -8 -5 -21 15 -11 32 -10 98 3
44 8 82 19 83 24 2 4 14 8 27 8 13 0 27 5 30 10 4 6 11 8 16 5 5 -4 9 -2 9 4
0 5 -5 13 -10 16 -16 10 -1 25 23 25 12 0 17 -4 12 -8 -6 -4 -9 -18 -8 -32 2
-14 4 -31 5 -37 1 -7 5 -13 10 -13 4 0 8 6 8 13 0 7 7 4 15 -7 14 -18 15 -15
15 36 0 31 4 59 9 62 5 4 43 9 84 12 58 5 74 10 70 20 -3 8 -11 14 -19 14 -8
0 -14 4 -14 9 0 5 -15 6 -32 2 -18 -4 -49 -7 -68 -7 -32 1 -34 4 -36 34 -1 18
2 34 6 37 4 2 5 16 3 29 -5 23 -3 24 31 16 20 -4 39 -4 42 1 3 5 19 9 35 9 36
0 46 22 41 81 l-4 42 -80 -6 c-87 -6 -93 -2 -80 47 8 30 23 38 97 52 16 3 31
6 32 8 6 6 -9 36 -18 36 -4 0 -6 -7 -3 -15 5 -12 -4 -15 -49 -15 -53 0 -55 1
-61 32 -7 38 25 78 48 59 10 -8 20 -4 42 17 29 27 29 29 16 72 -18 64 -21 282
-3 303 14 17 37 24 27 8 -7 -10 28 -43 37 -36 4 3 3 0 -2 -7 -7 -7 -7 -18 0
-30 11 -21 6 -23 -21 -6 -10 7 -22 9 -26 5 -9 -9 12 -242 24 -263 7 -12 11 -3
15 32 12 96 28 139 25 70 -1 -20 5 -42 12 -49 10 -10 12 -9 7 5 -4 12 -2 15 9
11 17 -6 18 -15 2 -31 -8 -8 -9 -12 -1 -12 16 0 26 -56 14 -77 -8 -14 -11 -15
-11 -3 -1 10 -4 9 -9 -4 -10 -27 7 -128 24 -146 8 -8 15 -10 15 -5 0 6 3 46 6
90 3 44 6 86 7 93 0 6 4 12 8 12 4 0 4 13 -1 28 -4 17 -4 36 2 46 6 11 6 21
-1 29 -5 7 -12 29 -14 48 -2 20 -7 41 -12 48 -4 7 -7 44 -7 82 0 92 20 113
109 116 67 3 73 -3 73 -73 0 -55 39 -186 66 -221 31 -41 60 -56 153 -79 41
-10 70 -19 63 -22 -7 -2 -12 -8 -12 -13 0 -4 6 -6 13 -4 9 4 12 -8 10 -45 0
-28 3 -48 8 -44 14 8 23 -25 10 -40 -6 -7 -8 -21 -5 -31 5 -12 1 -23 -11 -31
-10 -8 -14 -14 -9 -14 6 0 15 5 22 12 9 9 15 9 24 0 9 -9 9 -12 0 -12 -15 0
-50 -70 -47 -93 2 -9 -1 -15 -6 -11 -5 3 -9 -4 -9 -14 0 -11 -7 -23 -16 -26
-11 -4 -14 -13 -10 -31 4 -15 2 -25 -4 -25 -6 0 -9 -4 -6 -8 2 -4 1 -14 -4
-22 -5 -8 -5 -19 1 -26 6 -7 4 -16 -6 -24 -17 -14 -21 -35 -5 -25 9 6 15 -30
11 -64 -2 -7 2 -10 7 -7 6 3 9 -2 7 -11 -2 -10 -4 -18 -5 -18 -1 0 -2 -25 -3
-57 -1 -31 1 -54 6 -51 4 2 7 -3 7 -11 0 -9 5 -16 10 -16 7 0 7 -6 0 -19 -14
-28 -12 -36 5 -21 14 11 14 10 5 -14 -7 -20 -7 -25 1 -20 8 4 9 -1 4 -16 -6
-17 -4 -21 6 -14 11 6 12 5 2 -7 -24 -29 20 -122 45 -97 7 7 12 3 17 -11 5
-16 12 -20 26 -16 11 4 19 2 19 -5 0 -7 7 -9 16 -6 9 3 12 2 8 -5 -3 -6 -15
-9 -25 -6 -11 3 -19 1 -19 -4 0 -5 11 -9 25 -9 14 0 25 -4 25 -10 0 -33 65 27
68 63 1 15 -3 27 -8 27 -5 0 -7 7 -4 15 4 8 10 12 15 9 5 -3 9 1 9 8 0 16 36
49 44 41 3 -4 6 -1 6 5 0 7 8 12 18 12 14 0 15 2 2 10 -13 8 -12 10 3 10 11 0
15 4 11 12 -5 8 0 9 17 4 13 -5 44 -10 69 -12 25 -2 82 -15 125 -28 44 -13 83
-22 86 -20 4 2 3 21 -2 41 -9 41 11 88 34 80 22 -7 20 -80 -2 -104 -20 -21
-19 -50 1 -64 7 -5 0 -17 -42 -66 -6 -8 -7 -13 -1 -13 21 0 16 -37 -8 -63 -16
-18 -20 -27 -11 -25 12 2 14 -7 12 -51 -3 -47 -2 -53 13 -47 13 5 15 2 10 -14
-5 -16 -3 -19 12 -13 17 6 17 5 -1 -15 -18 -21 -18 -22 -1 -22 20 0 44 -27 45
-49 0 -11 -4 -10 -13 4 -10 12 -16 14 -21 7 -4 -7 -2 -12 4 -12 20 0 5 -35
-20 -47 l-25 -12 28 -1 c27 0 27 0 7 -20 -11 -11 -17 -26 -14 -34 3 -8 1 -17
-5 -21 -7 -3 -8 0 -5 9 3 9 1 16 -5 16 -6 0 -11 -1 -12 -2 -8 -44 -9 -89 -1
-84 6 4 8 -2 5 -14 -4 -14 -9 -17 -20 -11 -11 6 -22 2 -35 -11 -11 -11 -23
-17 -26 -13 -4 4 1 11 11 17 14 8 16 13 6 24 -9 11 -15 11 -25 3 -8 -6 -11
-15 -8 -20 7 -12 -9 -11 -24 1 -6 6 -10 7 -7 4 8 -11 -25 -36 -40 -30 -8 3
-15 1 -15 -5 0 -10 -45 -8 -56 4 -4 4 -12 7 -18 7 -6 0 4 -12 22 -26 23 -18
30 -29 22 -34 -8 -5 -2 -10 14 -14 l26 -6 -20 -22 c-11 -12 -20 -26 -20 -31 0
-14 27 -37 35 -29 3 4 11 0 15 -9 5 -9 39 -31 75 -50 36 -18 65 -36 65 -40 0
-4 9 -9 21 -12 12 -3 18 -10 15 -15 -3 -6 1 -13 10 -16 8 -3 12 -10 9 -16 -3
-6 3 -10 15 -10 15 0 20 -5 17 -14 -3 -8 1 -20 9 -27 9 -7 13 -21 11 -31 -4
-14 1 -18 20 -18 13 0 22 -4 18 -10 -3 -5 -13 -6 -23 -3 -15 6 -15 4 -4 -9 11
-14 10 -17 -5 -22 -19 -6 -50 -63 -40 -73 8 -8 -19 -33 -35 -33 -10 0 -10 -2
1 -9 9 -6 10 -11 2 -15 -6 -4 -9 -12 -6 -17 4 -5 538 -9 1328 -9 1197 1 1320
2 1302 16 -28 22 -114 65 -139 70 -11 2 -68 27 -126 56 -90 44 -116 52 -180
57 -78 6 -115 22 -233 99 -38 25 -58 32 -77 27 -69 -18 -75 -15 -80 45 -5 60
-28 105 -58 114 -13 5 -22 28 -36 103 -16 89 -40 153 -57 153 -4 0 -33 16 -65
35 -33 20 -81 42 -108 50 -26 8 -65 30 -86 49 -21 19 -68 48 -105 65 -66 31
-178 71 -199 71 -34 1 -38 17 -16 66 86 195 110 252 110 263 0 6 9 15 21 21
16 9 18 14 8 26 -9 11 -9 20 -1 37 21 42 52 151 52 183 0 24 7 38 26 51 48 33
63 52 75 93 10 33 10 49 1 73 -23 58 -22 297 0 457 13 92 18 170 15 213 -7 82
-1 106 19 80 13 -17 14 -17 20 5 3 12 10 23 15 23 5 1 13 2 19 3 29 4 42 57
22 93 -14 25 -6 56 12 46 6 -4 5 1 -3 10 -7 9 -10 17 -5 17 4 0 3 5 -4 12 -7
7 -12 22 -12 35 0 17 4 21 17 16 12 -5 9 3 -10 29 -26 33 -37 65 -18 54 4 -3
6 7 4 22 -10 62 -11 87 -3 92 4 3 3 29 -3 58 -9 44 -14 52 -34 52 -26 0 -30
18 -36 148 -3 46 -9 88 -16 95 -14 14 -15 30 -1 22 6 -3 10 5 10 18 0 20 -4
24 -19 20 -12 -3 -26 5 -40 23 -27 34 -27 44 2 38 12 -3 38 -6 57 -8 19 -1 42
-6 49 -11 10 -5 12 -4 7 3 -5 9 12 12 60 12 50 0 65 -3 57 -11 -12 -12 -75
-15 -92 -4 -6 3 -11 0 -11 -7 0 -8 14 -18 31 -23 17 -6 29 -14 27 -20 -1 -5
-7 -8 -13 -6 -5 2 -29 6 -52 8 -41 5 -43 4 -43 -21 0 -25 2 -26 55 -26 30 0
55 -4 55 -10 0 -5 -20 -10 -45 -10 -43 0 -44 -1 -35 -24 7 -21 6 -26 -10 -31
-21 -7 -25 -37 -14 -107 5 -29 11 -38 27 -38 18 0 19 5 15 55 -5 61 -2 66 55
86 l38 13 -33 12 -32 11 59 11 c33 6 89 14 125 18 36 4 83 16 104 26 35 18 41
18 51 5 9 -13 15 -13 48 2 43 18 48 31 13 31 -27 0 -42 15 -26 25 5 3 10 15
10 26 0 10 4 19 8 19 4 0 7 12 7 28 -1 15 3 33 8 40 9 11 -2 17 -25 13 -5 0
-8 6 -8 14 0 11 7 14 24 9 21 -5 23 -3 19 20 -6 30 -33 44 -33 17 0 -10 -7
-24 -16 -32 -13 -10 -24 -8 -68 15 l-53 28 -27 -24 c-16 -13 -36 -30 -45 -38
-17 -16 -92 -40 -150 -48 -29 -4 -38 0 -58 24 -16 21 -32 29 -54 29 -27 0 -30
-3 -26 -24 4 -21 -11 -51 -26 -51 -3 0 -8 14 -12 30 -4 17 -13 30 -21 30 -12
0 -13 -4 -4 -22 9 -18 6 -16 -10 5 -12 15 -26 25 -30 22 -11 -7 -108 91 -191
193 -37 45 -69 79 -72 76 -3 -3 -8 4 -12 15 -3 12 -13 21 -21 21 -8 0 -14 4
-14 9 0 11 -101 61 -122 61 -8 0 -25 10 -38 23 -14 12 -28 21 -32 19 -5 -1 -8
2 -8 6 0 5 -6 9 -12 10 -66 6 -167 32 -210 55 -27 14 -52 21 -64 17 -22 -8
-54 -2 -54 11 0 4 -8 8 -17 7 -10 0 -29 3 -43 7 -14 4 -71 9 -127 10 -85 3
-111 7 -157 29 -63 30 -68 31 -64 12z m-222 -476 c0 5 7 7 15 4 8 -4 15 -12
15 -18 0 -7 17 -20 38 -31 20 -10 31 -20 25 -22 -7 -3 -13 -11 -13 -19 0 -9
-5 -12 -11 -8 -7 4 -10 1 -7 -7 3 -8 11 -13 17 -11 7 1 10 -2 7 -7 -4 -5 -2
-12 3 -16 6 -3 7 -13 4 -22 -4 -11 -3 -14 5 -9 14 8 16 -6 3 -19 -15 -16 -23
-72 -12 -79 7 -4 7 -15 1 -30 -5 -13 -6 -27 -2 -31 3 -3 -1 -3 -11 1 -19 7
-24 -11 -4 -20 10 -5 10 -7 0 -12 -7 -3 -13 -17 -13 -30 0 -13 -4 -24 -10 -24
-12 0 -34 -40 -26 -47 3 -3 10 5 15 18 9 23 10 23 10 3 1 -12 8 -24 16 -28 8
-3 15 -15 15 -26 0 -14 4 -19 12 -14 7 4 8 3 4 -5 -4 -6 -11 -9 -16 -6 -5 3
-7 -12 -5 -32 3 -42 -3 -65 -15 -58 -5 3 -11 -4 -15 -15 -4 -13 -15 -20 -31
-20 -14 0 -22 4 -19 10 3 6 1 10 -4 10 -6 0 -11 -9 -11 -20 0 -11 -7 -20 -15
-20 -7 0 -18 -7 -23 -17 -7 -12 -18 -14 -39 -10 -17 3 -34 2 -39 -3 -6 -6 -22
-6 -42 -1 -21 7 -30 6 -26 0 4 -7 -8 -8 -33 -4 -24 4 -33 3 -25 -3 9 -6 -11
-13 -62 -22 -42 -7 -81 -19 -87 -26 -6 -8 -8 -14 -3 -14 12 0 -19 -20 -31 -20
-5 0 -3 5 5 10 9 6 10 10 3 10 -7 0 -16 -6 -20 -12 -4 -7 -17 -18 -27 -24 -26
-14 -34 -36 -9 -28 11 5 6 -6 -16 -29 -32 -34 -31 -43 2 -38 4 0 7 -4 7 -10 0
-6 -8 -8 -18 -5 -12 4 -19 1 -19 -7 0 -9 12 -12 39 -10 54 4 47 -13 -10 -27
-65 -15 -119 -61 -128 -105 -4 -25 -12 -35 -25 -35 -10 0 -27 -9 -38 -21 -17
-18 -22 -19 -43 -7 -22 12 -28 14 -55 17 -7 0 -13 8 -13 17 0 8 -4 13 -9 10
-12 -8 -8 18 6 35 6 8 14 25 18 39 6 24 47 131 66 175 22 49 39 139 28 146 -7
4 -3 12 11 22 22 15 11 35 -12 21 -7 -4 -5 2 5 14 11 11 16 25 13 31 -4 5 -2
12 4 16 6 4 8 11 4 16 -3 5 0 16 6 24 10 12 10 15 -1 15 -11 0 -11 2 -2 8 7 4
15 19 17 32 2 14 5 25 6 25 1 0 3 11 6 25 2 14 6 39 9 55 5 32 83 189 116 236
11 16 27 29 34 29 13 0 61 21 117 51 10 5 24 6 31 3 8 -3 17 1 20 9 6 16 137
50 159 42 7 -3 33 -1 58 3 25 5 57 5 73 1 15 -4 27 -4 27 1z m2000 -206 c0 -7
-60 -34 -77 -34 -12 0 -7 7 17 24 29 20 60 25 60 10z m-3060 -188 c0 -3 -4 -8
-10 -11 -5 -3 -10 -1 -10 4 0 6 5 11 10 11 6 0 10 -2 10 -4z m1160 -26 c0 -5
-10 -10 -22 -10 -19 0 -20 2 -8 10 19 13 30 13 30 0z m-1790 -30 c0 -5 -4 -10
-9 -10 -6 0 -13 5 -16 10 -3 6 1 10 9 10 9 0 16 -4 16 -10z m620 -35 l1 20 9
-20 c5 -11 9 -30 9 -43 1 -19 -3 -21 -25 -16 -23 6 -25 4 -19 -15 4 -12 2 -21
-4 -21 -14 0 -14 37 0 46 7 4 8 9 0 17 -7 7 -7 16 1 31 11 20 11 20 19 1 8
-20 8 -20 9 0z m1466 -80 c4 -11 8 -23 8 -27 1 -3 4 -10 9 -14 4 -4 8 -21 8
-38 1 -24 3 -26 6 -8 5 24 5 24 26 16 12 -4 13 -11 5 -35 -8 -25 -13 -28 -25
-17 -13 10 -14 7 -10 -19 3 -18 7 -36 10 -40 3 -5 1 -15 -5 -23 -8 -12 -9 -12
-4 3 3 9 1 17 -5 17 -6 0 -7 5 -4 10 3 6 2 10 -3 10 -10 0 -29 85 -36 170 -5
53 -2 52 20 -5z m-1600 -4 c-4 -5 0 -12 6 -14 9 -4 8 -6 -2 -6 -8 0 -24 6 -34
14 -19 14 -19 15 8 15 15 0 25 -4 22 -9z m1641 -33 c-3 -8 -6 -5 -6 6 -1 11 2
17 5 13 3 -3 4 -12 1 -19z m-1287 -22 c0 -2 -8 -10 -17 -17 -16 -13 -17 -12
-4 4 13 16 21 21 21 13z m937 -2 c-3 -3 -12 -4 -19 -1 -8 3 -5 6 6 6 11 1 17
-2 13 -5z m-1192 -62 c-7 -7 -44 37 -45 53 0 5 12 -3 26 -18 14 -16 23 -31 19
-35z m-283 9 c10 -18 38 -40 72 -56 31 -15 54 -31 50 -36 -3 -6 0 -17 7 -25
10 -12 9 -13 -7 -8 -10 4 -25 14 -33 23 -11 14 -12 13 -6 -7 6 -22 6 -23 -17
-11 -12 7 -29 12 -35 11 -7 -2 -13 5 -13 15 0 15 -2 16 -11 3 -8 -12 -9 -10
-4 8 9 31 -31 78 -52 61 -19 -16 -16 3 5 29 22 28 24 28 44 -7z m545 -57 c0
-9 -18 -34 -39 -56 -21 -22 -38 -35 -38 -30 0 5 11 20 24 33 12 13 28 34 35
47 14 26 18 28 18 6z m-587 -30 c0 -8 -5 -12 -10 -9 -6 4 -8 11 -5 16 9 14 15
11 15 -7z m423 -10 c-3 -8 0 -14 6 -14 11 0 9 -27 -4 -65 l-8 -20 17 20 c14
18 14 16 -1 -27 -11 -30 -21 -44 -30 -41 -7 3 -13 -2 -13 -12 0 -9 5 -13 10
-10 6 3 10 1 10 -5 0 -6 5 -8 10 -5 6 4 10 -11 9 -37 0 -37 -2 -40 -10 -20 -5
13 -18 26 -28 29 -17 4 -19 14 -19 99 1 74 4 94 15 94 10 0 12 6 8 19 -5 16
-2 18 14 14 12 -3 17 -11 14 -19z m-383 -44 c0 -19 -11 -26 -23 -14 -8 8 3 34
14 34 5 0 9 -9 9 -20z m34 -15 c3 -9 0 -15 -9 -15 -8 0 -15 7 -15 15 0 8 4 15
9 15 5 0 11 -7 15 -15z m1659 -20 c-3 -9 -8 -14 -10 -11 -3 3 -2 9 2 15 9 16
15 13 8 -4z m-1213 -15 c-11 -20 -30 -28 -30 -12 0 11 22 32 32 32 5 0 4 -9
-2 -20z m-210 -31 c0 -6 -4 -7 -10 -4 -5 3 -10 1 -10 -6 0 -7 -2 -10 -5 -7 -9
8 6 38 16 32 5 -3 9 -10 9 -15z m870 6 c0 -16 -18 -21 -107 -30 -41 -4 -63 -2
-63 5 0 5 6 11 13 11 37 4 54 8 77 16 38 15 80 14 80 -2z m30 1 c0 -3 -4 -8
-10 -11 -5 -3 -10 -1 -10 4 0 6 5 11 10 11 6 0 10 -2 10 -4z m-699 -35 c-12
-12 -21 -18 -21 -14 0 10 33 44 37 39 3 -2 -5 -14 -16 -25z m669 -12 c0 -5 -8
-9 -17 -9 -26 0 -118 -56 -157 -95 -48 -48 -37 -44 29 10 54 44 133 76 184 74
19 0 12 -5 -26 -18 -67 -23 -126 -62 -176 -117 -41 -45 -62 -54 -69 -32 -6 17
-39 -16 -36 -34 2 -8 -13 -15 -42 -19 -25 -3 -40 -7 -35 -8 130 -22 186 -18
199 15 5 14 69 20 99 8 17 -6 11 -44 -7 -44 -6 0 -4 -5 4 -10 13 -8 13 -10 -2
-10 -11 0 -16 -6 -13 -20 3 -13 -2 -20 -13 -21 -15 0 -15 -1 1 -8 17 -6 17 -8
3 -20 -10 -8 -35 -12 -71 -9 -59 3 -75 -9 -24 -19 17 -3 35 -13 41 -22 7 -12
20 -16 44 -13 21 3 34 0 34 -7 0 -6 -3 -11 -7 -11 -5 0 -19 -9 -32 -19 -20
-15 -22 -21 -11 -40 20 -38 -4 -54 -67 -48 -140 15 -197 97 -210 308 -7 108 5
159 41 183 33 21 135 46 225 54 42 4 84 8 94 9 9 1 17 -2 17 -8z m-883 -49
c-3 -11 -2 -20 2 -20 4 0 8 -6 8 -12 0 -7 2 -19 4 -27 2 -8 -4 -16 -13 -18
-12 -3 -15 1 -11 16 3 12 0 28 -7 36 -9 10 -9 15 -1 15 6 0 10 3 10 8 -2 13 1
22 7 22 4 0 4 -9 1 -20z m-537 -51 c0 -52 -2 -60 -14 -50 -8 7 -20 11 -28 10
-62 -8 -72 18 -14 39 22 8 36 21 40 37 10 41 16 28 16 -36z m27 39 c-3 -8 -6
-5 -6 6 -1 11 2 17 5 13 3 -3 4 -12 1 -19z m98 -8 c3 -5 1 -10 -4 -10 -6 0
-11 5 -11 10 0 6 2 10 4 10 3 0 8 -4 11 -10z m1274 -17 c-18 -8 -40 -20 -49
-28 -9 -8 -21 -11 -28 -6 -16 10 76 61 96 54 9 -4 3 -11 -19 -20z m1769 4 c5
-24 -15 -21 -21 4 -3 13 -1 19 6 16 7 -2 13 -11 15 -20z m-3020 -44 c0 -27 2
-55 6 -64 6 -13 2 -16 -19 -11 -24 4 -26 9 -23 38 3 27 0 34 -17 36 -28 4 -25
22 5 26 14 2 29 8 35 13 14 14 14 13 13 -38z m32 37 c0 -5 -5 -10 -11 -10 -5
0 -7 5 -4 10 3 6 8 10 11 10 2 0 4 -4 4 -10z m1771 -17 c-24 -8 -46 -12 -49
-8 -3 3 4 8 16 12 12 3 20 8 17 12 -2 4 10 5 27 3 l31 -5 -42 -14z m-2084 -35
c-3 -7 -5 -2 -5 12 0 14 2 19 5 13 2 -7 2 -19 0 -25z m1453 8 c0 -3 -4 -8 -10
-11 -5 -3 -10 -1 -10 4 0 6 5 11 10 11 6 0 10 -2 10 -4z m678 -8 c22 -28 21
-82 -2 -143 -31 -80 -39 -115 -26 -115 6 0 9 4 6 9 -3 5 1 14 9 21 12 10 18
10 30 0 8 -6 13 -15 12 -18 -1 -4 11 -20 26 -36 14 -16 25 -31 23 -35 -3 -4
-7 -60 -10 -126 -3 -65 -10 -121 -14 -124 -5 -3 -8 -20 -6 -38 1 -18 -4 -37
-12 -44 -8 -6 -14 -20 -14 -30 0 -10 -4 -28 -10 -41 -5 -13 -14 -41 -19 -63
-7 -26 -20 -46 -37 -56 -26 -16 -29 -15 -88 23 -40 26 -68 37 -81 33 -66 -19
-74 -18 -105 13 -32 32 -37 62 -20 108 11 28 60 84 60 68 0 -10 27 27 30 41 1
6 -15 15 -36 21 -31 8 -38 15 -38 37 -1 16 4 27 11 27 11 0 32 9 62 28 2 1 5
10 6 21 1 18 64 81 81 81 5 0 20 9 34 20 l25 20 -22 0 c-26 0 -29 9 -9 35 8
11 19 16 30 12 35 -14 73 135 42 165 -16 16 -23 94 -8 85 4 -3 16 -1 27 4 28
11 31 11 43 -3z m-1444 -30 c4 -20 3 -28 -7 -28 -9 0 -12 9 -9 30 5 36 7 35
16 -2z m-491 -2 c19 -15 24 -31 5 -19 -7 4 -17 8 -22 8 -5 0 -11 6 -13 13 -6
16 7 15 30 -2z m81 -68 c-4 -6 -10 -5 -15 3 -14 22 -10 33 6 19 8 -7 12 -17 9
-22z m1752 -15 c-11 -11 -19 6 -11 24 8 17 8 17 12 0 3 -10 2 -21 -1 -24z m34
10 c0 -5 -5 -15 -10 -23 -8 -12 -10 -11 -10 8 0 12 5 22 10 22 6 0 10 -3 10
-7z m-1378 -26 c3 -17 0 -23 -15 -24 -13 -1 -17 3 -13 13 3 9 6 20 6 25 0 19
18 8 22 -14z m-452 3 c0 -5 -5 -10 -11 -10 -5 0 -7 5 -4 10 3 6 8 10 11 10 2
0 4 -4 4 -10z m1784 -16 c3 -8 2 -13 -2 -10 -5 3 -9 -11 -9 -30 -1 -18 3 -31
8 -28 5 3 9 0 9 -5 0 -6 -7 -11 -15 -11 -9 0 -20 -11 -25 -24 -11 -29 -26 -40
-35 -25 -14 22 34 148 56 149 4 0 10 -7 13 -16z m-1707 -10 c3 -8 12 -13 19
-10 8 3 14 1 14 -4 0 -6 -7 -10 -15 -10 -8 0 -20 -9 -27 -20 -14 -22 -30 -27
-22 -7 3 8 -2 19 -10 26 -8 7 -12 19 -9 27 7 19 42 18 50 -2z m403 -44 c0 -5
-2 -10 -4 -10 -3 0 -8 5 -11 10 -3 6 -1 10 4 10 6 0 11 -4 11 -10z m-371 -14
c9 -10 8 -16 -4 -26 -13 -11 -15 -8 -15 14 0 30 3 32 19 12z m351 -6 c0 -5 -4
-10 -10 -10 -5 0 -10 5 -10 10 0 6 5 10 10 10 6 0 10 -4 10 -10z m-424 -11 c3
-6 15 -8 26 -6 16 5 19 2 15 -14 -3 -12 0 -22 9 -26 19 -7 18 -23 -1 -23 -8 0
-15 -4 -15 -10 0 -5 5 -10 10 -10 6 0 10 -10 10 -21 0 -17 -3 -19 -14 -10 -10
9 -15 8 -20 -4 -6 -18 -36 -20 -36 -3 0 6 6 27 12 46 11 29 10 35 -5 43 -9 6
-17 19 -17 29 0 22 15 27 26 9z m-480 -24 c3 -8 15 -17 26 -21 25 -8 18 -14
-25 -24 -38 -8 -67 3 -67 25 0 18 21 19 39 3 11 -11 13 -9 8 10 -6 24 10 31
19 7z m904 -20 c0 -9 -6 -12 -16 -8 -13 5 -13 7 -2 14 17 11 18 11 18 -6z
m-493 -47 c-3 -8 -6 -5 -6 6 -1 11 2 17 5 13 3 -3 4 -12 1 -19z m153 7 c0 -8
-4 -15 -9 -15 -13 0 -22 16 -14 24 11 11 23 6 23 -9z m-470 -5 c0 -5 -4 -10
-10 -10 -5 0 -10 5 -10 10 0 6 5 10 10 10 6 0 10 -4 10 -10z m822 -30 c6 -37
-6 -60 -22 -44 -13 13 -3 87 10 79 4 -3 10 -18 12 -35z m1231 19 c-8 -8 -13
-7 -18 2 -5 8 -4 10 3 5 7 -4 12 -2 12 5 0 7 3 9 7 6 4 -4 2 -12 -4 -18z
m-1538 1 c3 -5 -1 -10 -9 -10 -8 0 -18 5 -21 10 -3 6 1 10 9 10 8 0 18 -4 21
-10z m-95 -64 c0 -3 -4 -8 -10 -11 -5 -3 -10 -1 -10 4 0 6 5 11 10 11 6 0 10
-2 10 -4z m400 -56 c0 -5 -2 -10 -4 -10 -3 0 -8 5 -11 10 -3 6 -1 10 4 10 6 0
11 -4 11 -10z m-11 -74 c15 -18 -1 -30 -29 -21 -11 4 -17 12 -13 21 7 18 27
18 42 0z m801 -81 c-7 -9 -15 -13 -18 -10 -3 2 1 11 8 20 7 9 15 13 18 10 3
-2 -1 -11 -8 -20z m373 -248 c15 -9 33 -17 42 -17 9 0 13 -4 10 -10 -5 -9 14
-15 37 -11 3 0 5 -7 3 -17 -1 -9 3 -20 9 -24 7 -5 5 -13 -8 -25 -17 -17 -18
-17 -11 5 4 15 2 24 -9 28 -9 3 -13 10 -10 15 3 5 -2 6 -11 3 -19 -8 -16 -32
8 -57 12 -12 22 -15 30 -9 16 13 47 11 47 -2 0 -6 5 -4 10 4 8 12 10 11 10 -6
0 -12 7 -27 15 -34 8 -6 14 -15 13 -18 -1 -4 5 -21 15 -38 18 -34 12 -51 -11
-32 -11 10 -17 9 -26 -4 -8 -11 -17 -14 -27 -7 -12 7 -12 9 0 9 8 0 12 3 9 6
-4 3 -16 1 -27 -6 -15 -8 -21 -8 -21 0 0 6 -5 8 -11 5 -21 -14 -109 -15 -109
-2 0 6 -5 4 -11 -5 -14 -25 -127 -26 -136 -2 -3 9 -1 19 4 23 11 7 28 49 32
81 0 6 9 10 19 10 14 0 15 2 2 10 -8 5 -10 10 -4 10 14 0 13 50 -1 51 -5 0 1
5 14 10 17 7 27 6 31 -2 5 -7 9 -5 13 6 4 9 3 13 -3 10 -6 -3 -11 0 -11 7 -5
56 22 69 74 35z m-142 -149 c-17 -34 -27 -46 -29 -35 -2 9 -8 14 -14 11 -7 -4
-8 -2 -4 4 4 7 14 12 22 12 12 0 15 7 14 35 0 3 5 12 12 19 25 27 25 6 -1 -46z
m-844 46 c-3 -3 -12 -4 -19 -1 -8 3 -5 6 6 6 11 1 17 -2 13 -5z m820 -110 c-3
-3 -12 -4 -19 -1 -8 3 -5 6 6 6 11 1 17 -2 13 -5z m196 -144 c3 -11 1 -18 -4
-14 -5 3 -9 12 -9 20 0 20 7 17 13 -6z m96 3 c0 -10 2 -29 3 -43 5 -38 -24
-35 -43 5 -16 35 -16 35 8 35 14 0 21 4 18 10 -3 6 -2 10 4 10 5 0 10 -8 10
-17z m-1573 -47 c6 14 97 8 102 -6 2 -6 14 -10 26 -10 28 0 31 -27 4 -36 -13
-4 -17 -12 -13 -24 3 -11 1 -18 -7 -17 -7 0 -26 -1 -41 -1 -33 -2 -27 -22 6
-22 16 0 18 -3 9 -9 -11 -6 -10 -10 5 -16 16 -6 16 -8 -7 -18 l-25 -10 23 -4
c12 -3 20 -9 17 -14 -4 -5 3 -9 14 -9 31 0 35 -19 6 -30 -41 -15 -60 -13 -45
5 10 12 6 17 -24 32 -35 16 -46 36 -26 48 23 14 -3 63 -41 78 -8 3 -5 6 9 6
30 1 28 17 -5 29 -16 6 -23 11 -16 11 7 1 10 8 7 19 -5 15 -4 15 6 2 8 -10 13
-11 16 -4z m249 -106 c3 -5 1 -10 -4 -10 -6 0 -11 5 -11 10 0 6 2 10 4 10 3 0
8 -4 11 -10z m962 -58 c8 -5 7 -12 -4 -27 -15 -20 -15 -20 -10 2 3 12 0 24 -7
27 -6 2 -6 5 -1 5 6 0 15 -3 22 -7z"/>
<path d="M2310 3560 c0 -5 5 -10 11 -10 5 0 7 5 4 10 -3 6 -8 10 -11 10 -2 0
-4 -4 -4 -10z"/>
<path d="M2297 3453 c-4 -3 -7 -11 -7 -17 0 -6 5 -5 12 2 6 6 9 14 7 17 -3 3
-9 2 -12 -2z"/>
<path d="M2280 3412 c0 -5 7 -13 16 -16 10 -4 14 -1 12 6 -5 15 -28 23 -28 10z"/>
<path d="M2200 3296 c0 -2 6 -9 13 -15 10 -8 14 -7 14 4 0 8 -6 15 -14 15 -7
0 -13 -2 -13 -4z"/>
<path d="M2224 1678 c-10 -16 -13 -48 -3 -43 6 5 19 55 13 55 -1 0 -6 -6 -10
-12z"/>
<path d="M2337 1620 c6 -22 18 -26 29 -9 3 6 0 15 -7 20 -22 14 -28 11 -22
-11z"/>
<path d="M968 1323 c7 -3 16 -2 19 1 4 3 -2 6 -13 5 -11 0 -14 -3 -6 -6z"/>
<path d="M4818 3718 c5 -5 16 -8 23 -6 8 3 3 7 -10 11 -17 4 -21 3 -13 -5z"/>
<path d="M4495 3693 c-23 -6 -69 -52 -61 -61 4 -3 16 4 29 16 15 15 31 20 49
17 22 -4 25 -2 21 15 -3 11 -8 19 -12 19 -3 -1 -15 -4 -26 -6z"/>
<path d="M4730 3685 c7 -9 15 -13 17 -11 7 7 -7 26 -19 26 -6 0 -6 -6 2 -15z"/>
<path d="M4945 3670 c-50 -24 -61 -26 -68 -14 -9 16 -16 17 -37 4 -13 -8 -12
-12 8 -25 12 -9 22 -23 22 -31 0 -9 5 -12 13 -8 6 4 1 -5 -13 -20 -18 -20 -31
-25 -47 -21 -14 3 -23 1 -23 -6 0 -6 -7 -9 -15 -6 -8 4 -17 2 -20 -3 -8 -13
-45 -13 -45 -1 0 5 -9 7 -19 4 -32 -8 -64 15 -58 43 5 28 -12 37 -34 17 -14
-12 -17 -12 -23 2 -4 12 0 19 13 22 36 9 34 40 -1 34 -5 0 -8 4 -8 9 0 18 -29
10 -40 -10 -8 -15 -17 -19 -32 -14 -18 5 -20 3 -15 -15 3 -11 1 -24 -4 -27 -5
-3 -10 7 -10 23 -1 22 -3 24 -6 6 -3 -15 -14 -24 -36 -28 -18 -4 -39 -8 -48
-11 -16 -4 -57 -119 -47 -129 3 -3 40 1 83 10 l77 14 77 -39 c43 -22 89 -40
102 -40 13 0 68 -3 122 -6 67 -4 102 -3 110 5 8 8 -1 11 -36 11 -57 0 -62 15
-8 24 46 7 213 102 231 130 9 15 10 21 1 24 -6 2 -11 10 -11 18 0 9 5 12 10 9
6 -4 10 5 10 19 0 14 -4 26 -10 26 -5 0 -10 -4 -10 -10 0 -5 -10 -10 -22 -10
-17 0 -19 -3 -10 -12 7 -7 12 -16 12 -22 0 -6 -4 -6 -11 1 -11 11 -20 62 -10
61 20 -2 31 3 26 12 -11 19 -80 9 -140 -20z m-375 -59 c0 -6 -4 -13 -10 -16
-5 -3 -10 1 -10 9 0 9 5 16 10 16 6 0 10 -4 10 -9z m20 -53 c0 -18 -2 -20 -9
-8 -6 8 -7 18 -5 22 9 14 14 9 14 -14z m427 -10 c-3 -8 -6 -5 -6 6 -1 11 2 17
5 13 3 -3 4 -12 1 -19z m-142 3 c3 -5 1 -12 -5 -16 -5 -3 -10 1 -10 9 0 18 6
21 15 7z"/>
<path d="M4666 3641 c-18 -20 -5 -24 22 -8 7 5 22 5 35 1 19 -6 20 -5 8 10
-18 21 -44 20 -65 -3z"/>
<path d="M3738 3613 c7 -3 16 -2 19 1 4 3 -2 6 -13 5 -11 0 -14 -3 -6 -6z"/>
<path d="M0 3474 l0 -64 53 21 c28 12 77 31 107 42 l54 21 -70 12 c-39 7 -87
17 -107 22 l-37 10 0 -64z"/>
<path d="M920 3425 c0 -8 5 -15 10 -15 6 0 10 7 10 15 0 8 -4 15 -10 15 -5 0
-10 -7 -10 -15z"/>
<path d="M746 3382 c-3 -3 -20 -5 -38 -6 -30 -1 -35 -6 -48 -44 -12 -34 -12
-46 -2 -62 9 -15 9 -26 2 -39 -8 -16 -7 -18 10 -14 13 3 27 -4 43 -22 34 -41
72 -29 87 25 6 22 15 41 20 41 6 1 15 2 22 3 23 2 18 23 -16 68 -32 42 -67 64
-80 50z"/>
<path d="M920 3381 c0 -5 7 -11 14 -14 10 -4 13 -1 9 9 -6 15 -23 19 -23 5z"/>
<path d="M4610 3385 c8 -2 32 -6 52 -10 30 -5 39 -11 45 -33 l6 -27 8 29 c5
16 6 33 3 38 -3 4 -33 7 -67 7 -34 -1 -55 -3 -47 -4z"/>
<path d="M4750 3351 c0 -16 3 -43 7 -62 5 -28 7 -30 14 -14 4 11 8 39 8 63 1
31 -3 42 -14 42 -10 0 -15 -10 -15 -29z"/>
<path d="M4884 3292 l1 -90 18 40 c23 49 20 131 -4 136 -14 2 -16 -10 -15 -86z"/>
<path d="M4793 3315 c2 -26 7 -48 9 -51 3 -2 19 -1 36 2 30 6 32 9 32 50 l0
44 -41 0 -42 0 6 -45z"/>
<path d="M4980 3351 c0 -6 5 -13 10 -16 6 -3 10 1 10 9 0 9 -4 16 -10 16 -5 0
-10 -4 -10 -9z"/>
<path d="M4420 3336 c0 -8 16 -20 35 -27 30 -11 35 -17 35 -46 0 -23 5 -33 15
-33 12 0 15 13 15 57 0 77 12 60 14 -19 1 -48 5 -63 16 -64 8 -1 23 -2 33 -3
9 0 17 -7 17 -15 0 -7 18 -25 40 -40 37 -24 45 -25 41 -3 -3 20 16 3 29 -25
l14 -33 7 35 c10 45 5 51 -37 45 -29 -3 -35 -1 -30 10 16 43 -42 98 -82 76
-17 -9 -20 -7 -26 21 -3 17 -6 41 -6 54 0 23 -3 24 -65 24 -50 0 -65 -3 -65
-14z"/>
<path d="M4612 3323 c2 -17 10 -29 21 -31 13 -3 17 3 17 27 0 25 -4 31 -21 31
-16 0 -20 -5 -17 -27z"/>
<path d="M10 3330 c-8 -5 -12 -11 -10 -14 3 -2 14 2 24 10 22 15 10 19 -14 4z"/>
<path d="M921 3308 c-6 -17 -11 -32 -11 -33 0 -2 13 -5 29 -7 22 -3 31 0 34
14 3 10 12 18 21 18 22 0 20 17 -3 25 -51 16 -59 14 -70 -17z"/>
<path d="M4270 3249 c0 -5 5 -7 10 -4 6 3 10 8 10 11 0 2 -4 4 -10 4 -5 0 -10
-5 -10 -11z"/>
<path d="M4438 3253 c6 -2 18 -2 25 0 6 3 1 5 -13 5 -14 0 -19 -2 -12 -5z"/>
<path d="M124 3228 c-4 -7 1 -17 14 -26 26 -17 18 -42 -14 -42 -13 0 -24 -4
-24 -10 0 -5 -9 -10 -20 -10 -14 0 -18 -5 -13 -17 4 -11 3 -14 -5 -9 -6 3 -23
4 -37 0 -25 -6 -25 -6 -25 -120 0 -63 4 -114 9 -114 5 0 11 5 13 10 2 7 21 5
53 -5 69 -21 78 -20 63 5 -7 11 -20 19 -28 18 -22 -3 -60 12 -60 23 0 6 17 9
38 7 34 -3 37 -1 34 22 -2 24 -17 40 -37 40 -5 0 -3 -4 5 -10 20 -12 6 -23
-20 -15 -12 4 -19 12 -16 20 3 8 0 16 -7 18 -27 10 2 16 33 7 43 -12 80 -54
73 -81 -4 -15 0 -22 16 -26 15 -4 21 -13 21 -34 0 -19 5 -29 15 -29 12 0 15
13 15 55 0 76 16 69 25 -10 5 -48 11 -68 25 -75 15 -8 17 -18 13 -52 -5 -42
-5 -63 0 -103 1 -11 -3 -19 -9 -18 -7 1 -12 -11 -12 -30 0 -18 -1 -36 -2 -42
-6 -25 2 -35 23 -33 30 5 47 16 47 34 0 8 -4 13 -9 10 -5 -4 -7 3 -4 14 3 11
0 20 -6 20 -15 0 -14 53 2 69 8 10 8 12 0 7 -9 -5 -11 13 -10 69 2 57 -2 78
-13 85 -13 8 -13 10 0 15 12 4 15 23 15 78 l0 72 -40 1 c-62 2 -65 3 -65 19 0
8 -8 15 -19 15 -10 0 -31 7 -47 14 -15 8 -31 13 -35 11 -4 -3 -9 2 -13 10 -4
10 6 17 34 25 41 11 57 25 40 35 -6 4 -1 17 11 35 12 16 19 36 16 44 -7 19
-52 21 -63 4z m141 -239 c11 -17 -1 -21 -15 -4 -8 9 -8 15 -2 15 6 0 14 -5 17
-11z"/>
<path d="M230 3181 c0 -23 5 -41 10 -41 6 0 10 15 10 34 0 19 -4 38 -10 41 -6
4 -10 -10 -10 -34z"/>
<path d="M4766 3203 c-4 -9 -3 -20 2 -25 6 -6 10 1 10 16 0 30 -3 32 -12 9z"/>
<path d="M0 3188 c0 -19 2 -20 10 -8 13 19 13 30 0 30 -5 0 -10 -10 -10 -22z"/>
<path d="M80 3194 c-10 -12 -8 -14 14 -14 28 0 35 14 12 23 -8 3 -20 -1 -26
-9z"/>
<path d="M4220 3196 c0 -8 5 -18 10 -21 6 -3 10 1 10 9 0 8 -4 18 -10 21 -5 3
-10 -1 -10 -9z"/>
<path d="M4030 3170 c0 -5 5 -10 10 -10 6 0 10 5 10 10 0 6 -4 10 -10 10 -5 0
-10 -4 -10 -10z"/>
<path d="M4091 3148 c-6 -17 -9 -33 -7 -35 7 -7 36 9 31 17 -3 5 2 13 11 18 9
5 14 14 10 21 -13 21 -34 11 -45 -21z"/>
<path d="M4518 3167 c-17 -13 -21 -27 -19 -64 1 -32 17 -29 29 5 9 27 9 27 16
4 7 -22 8 -22 22 -5 7 10 14 30 14 46 0 22 -4 27 -22 27 -13 0 -30 -6 -40 -13z"/>
<path d="M4293 3155 c-17 -19 -16 -25 2 -25 8 0 15 4 15 10 0 5 6 7 14 4 7 -3
16 2 19 10 8 21 -33 21 -50 1z"/>
<path d="M4456 3151 c-19 -7 -19 -8 2 -13 15 -4 22 -2 22 8 0 8 -1 14 -2 13
-2 0 -12 -4 -22 -8z"/>
<path d="M4224 3078 c3 -13 6 -36 6 -52 0 -41 12 -25 16 23 2 29 -1 41 -13 45
-12 5 -14 1 -9 -16z"/>
<path d="M438 3070 c-15 -17 -15 -18 2 -23 20 -5 74 26 63 36 -12 13 -48 5
-65 -13z"/>
<path d="M4063 3073 c-19 -7 -16 -20 6 -26 14 -3 17 0 14 14 -3 11 -6 19 -7
18 0 0 -7 -3 -13 -6z"/>
<path d="M250 3060 c8 -5 22 -9 30 -9 10 0 8 3 -5 9 -27 12 -43 12 -25 0z"/>
<path d="M520 3063 c1 -4 7 -19 15 -33 l14 -25 -2 29 c-1 16 -8 31 -15 34 -6
2 -12 0 -12 -5z"/>
<path d="M4500 3056 c0 -9 7 -16 16 -16 9 0 14 5 12 12 -6 18 -28 21 -28 4z"/>
<path d="M3958 3039 c-21 -12 -24 -39 -5 -39 14 0 47 31 47 43 0 10 -22 8 -42
-4z"/>
<path d="M4550 3029 c0 -11 5 -17 10 -14 6 3 10 13 10 21 0 8 -4 14 -10 14 -5
0 -10 -9 -10 -21z"/>
<path d="M501 3016 c-8 -9 -15 -31 -17 -49 -3 -23 -1 -28 6 -17 10 16 17 13
20 -10 6 -41 0 -48 -45 -52 l-45 -3 1 35 c1 33 2 34 8 7 5 -25 8 -27 25 -14
19 14 14 43 -5 32 -5 -4 -9 1 -9 9 0 11 6 13 17 9 14 -5 12 0 -7 23 -17 21
-34 31 -52 31 l-28 0 0 -96 c0 -53 4 -102 9 -109 6 -10 31 -13 92 -11 112 3
117 4 111 34 -4 22 -1 25 27 25 17 0 31 4 31 10 0 10 -40 50 -51 50 -3 0 -9
14 -13 31 -5 26 -9 29 -20 20 -16 -14 -24 -6 -35 36 -6 23 -8 24 -20 9z m-73
-44 c2 -7 -3 -12 -12 -12 -9 0 -16 7 -16 16 0 17 22 14 28 -4z"/>
<path d="M4627 3005 c4 -17 12 -25 25 -25 19 0 19 2 6 22 -21 32 -36 33 -31 3z"/>
<path d="M4830 2996 c0 -9 5 -16 10 -16 6 0 10 4 10 9 0 6 -4 13 -10 16 -5 3
-10 -1 -10 -9z"/>
<path d="M4870 3002 c0 -5 7 -13 16 -16 10 -4 14 -1 12 6 -5 15 -28 23 -28 10z"/>
<path d="M4770 2974 c0 -8 5 -12 10 -9 6 3 10 10 10 16 0 5 -4 9 -10 9 -5 0
-10 -7 -10 -16z"/>
<path d="M4814 2939 c-3 -6 2 -18 11 -27 17 -16 17 -16 12 1 -4 9 -2 17 3 17
6 0 10 5 10 10 0 13 -27 13 -36 -1z"/>
<path d="M4559 2880 c-6 -31 4 -99 12 -85 3 6 3 33 0 60 -5 37 -8 43 -12 25z"/>
<path d="M4863 2874 c0 -25 11 -32 22 -14 3 6 0 17 -8 25 -13 12 -14 11 -14
-11z"/>
<path d="M4968 2840 c-10 -17 -12 -33 -7 -41 6 -10 9 -8 9 9 0 12 5 22 11 22
10 0 39 24 39 32 0 2 -8 4 -18 5 -10 1 -25 -11 -34 -27z"/>
<path d="M661 2841 c-1 -20 -3 -21 -16 -11 -12 10 -15 10 -15 -4 0 -9 8 -16
19 -16 25 0 31 10 20 35 -7 19 -8 18 -8 -4z"/>
<path d="M4510 2846 c0 -9 5 -16 10 -16 6 0 10 4 10 9 0 6 -4 13 -10 16 -5 3
-10 -1 -10 -9z"/>
<path d="M4840 2807 c0 -20 5 -39 10 -42 6 -4 8 8 5 31 -6 49 -15 56 -15 11z"/>
<path d="M4901 2824 c0 -11 3 -14 6 -6 3 7 2 16 -1 19 -3 4 -6 -2 -5 -13z"/>
<path d="M5086 2778 c-9 -12 -16 -29 -15 -38 0 -9 5 -4 12 10 6 14 16 28 21
32 6 4 8 10 4 13 -3 4 -13 -4 -22 -17z"/>
<path d="M4896 2765 c-3 -8 -1 -15 4 -15 6 0 10 7 10 15 0 8 -2 15 -4 15 -2 0
-6 -7 -10 -15z"/>
<path d="M4572 2730 c0 -14 2 -19 5 -12 2 6 2 18 0 25 -3 6 -5 1 -5 -13z"/>
<path d="M4455 2730 c-3 -5 1 -10 9 -10 8 0 18 5 21 10 3 6 -1 10 -9 10 -8 0
-18 -4 -21 -10z"/>
<path d="M4630 2731 c0 -6 5 -13 10 -16 6 -3 10 -17 10 -29 0 -25 22 -51 33
-39 4 3 7 -1 7 -10 0 -9 5 -17 10 -17 6 0 10 2 10 5 0 9 -24 49 -44 72 -10 12
-15 26 -11 32 3 6 -1 11 -9 11 -9 0 -16 -4 -16 -9z"/>
<path d="M4523 2694 c-3 -8 -1 -20 6 -27 8 -8 11 -8 11 0 0 6 3 18 6 27 3 9 1
16 -5 16 -7 0 -14 -7 -18 -16z"/>
<path d="M5027 2703 c-4 -3 -7 -11 -7 -17 0 -6 5 -5 12 2 6 6 9 14 7 17 -3 3
-9 2 -12 -2z"/>
<path d="M5050 2686 c0 -13 -6 -26 -12 -29 -7 -2 -10 -7 -6 -11 3 -4 17 -1 30
6 12 7 24 14 26 15 7 3 -19 43 -28 43 -6 0 -10 -11 -10 -24z"/>
<path d="M171 2600 l1 -35 7 30 7 30 7 -32 c10 -49 37 -44 37 7 0 39 -1 40
-30 38 -28 -2 -30 -5 -29 -38z"/>
<path d="M4446 2618 c-10 -39 -7 -66 9 -71 8 -4 17 -2 20 4 4 5 11 6 17 3 6
-4 21 5 32 19 l21 26 0 -37 c0 -32 3 -37 23 -37 12 0 22 4 21 9 0 5 5 12 11
16 9 6 10 16 3 36 -8 22 -16 28 -34 26 -18 -1 -21 0 -9 7 20 13 6 24 -19 16
-14 -4 -21 -15 -22 -33 l-1 -27 -10 28 c-5 15 -13 27 -18 27 -5 0 -15 3 -23 6
-9 3 -17 -3 -21 -18z"/>
<path d="M5102 2617 c-7 -8 -28 -18 -48 -21 -19 -4 -32 -11 -29 -16 3 -5 -3
-10 -12 -13 -15 -3 -13 -6 9 -15 14 -6 29 -15 33 -21 8 -13 56 16 54 33 -1 6
1 19 5 28 12 26 3 43 -12 25z"/>
<path d="M4966 2561 c-4 -7 -5 -15 -2 -18 9 -9 19 4 14 18 -4 11 -6 11 -12 0z"/>
<path d="M5007 2533 c-14 -13 -7 -42 8 -37 8 4 15 15 15 25 0 19 -11 25 -23
12z"/>
<path d="M4558 2503 c7 -3 16 -2 19 1 4 3 -2 6 -13 5 -11 0 -14 -3 -6 -6z"/>
<path d="M0 2465 c0 -18 5 -25 20 -25 11 0 20 3 20 8 0 4 -9 15 -20 25 -19 16
-20 16 -20 -8z"/>
<path d="M110 2462 c-7 -3 -3 -10 10 -19 19 -13 24 -13 31 -2 5 8 9 16 9 19 0
7 -32 8 -50 2z"/>
<path d="M5005 2460 c3 -5 8 -10 11 -10 2 0 4 5 4 10 0 6 -5 10 -11 10 -5 0
-7 -4 -4 -10z"/>
<path d="M4900 2449 c0 -5 5 -7 10 -4 6 3 10 8 10 11 0 2 -4 4 -10 4 -5 0 -10
-5 -10 -11z"/>
<path d="M3996 2441 c-3 -5 5 -16 19 -25 17 -11 26 -13 31 -4 4 6 3 8 -3 5 -6
-4 -13 2 -16 13 -5 21 -22 27 -31 11z"/>
<path d="M4751 2426 c-7 -8 -19 -12 -27 -9 -8 3 -14 1 -14 -5 0 -13 52 -23 64
-12 4 4 4 16 -1 25 -8 14 -11 15 -22 1z"/>
<path d="M0 2339 c0 -46 4 -78 9 -75 5 4 9 35 10 71 0 36 3 70 6 75 3 6 -1 10
-9 10 -13 0 -16 -14 -16 -81z"/>
<path d="M4870 2388 c0 -19 2 -20 10 -8 9 13 11 13 21 0 8 -12 10 -12 7 5 -5
30 -38 32 -38 3z"/>
<path d="M4803 2357 c-21 -43 -23 -57 -7 -57 19 0 32 32 15 38 -9 3 -9 7 0 18
7 8 10 17 7 19 -3 3 -9 -5 -15 -18z"/>
<path d="M4620 2360 c0 -5 5 -10 11 -10 5 0 7 5 4 10 -3 6 -8 10 -11 10 -2 0
-4 -4 -4 -10z"/>
<path d="M4740 2354 c0 -8 6 -11 15 -8 8 4 15 9 15 13 0 4 -7 8 -15 8 -8 0
-15 -6 -15 -13z"/>
<path d="M4700 2320 c0 -5 7 -10 15 -10 9 0 18 -7 22 -16 5 -13 7 -13 14 -2
13 20 11 28 -6 22 -8 -4 -15 -1 -15 5 0 6 -7 11 -15 11 -8 0 -15 -4 -15 -10z"/>
<path d="M4830 2311 c0 -11 4 -22 9 -25 5 -3 8 5 7 19 -1 29 -16 34 -16 6z"/>
<path d="M60 2283 c-6 -15 -13 -34 -16 -42 -3 -11 -7 -12 -16 -3 -22 22 -28
12 -28 -48 0 -47 3 -60 15 -60 8 0 15 -4 15 -10 0 -5 -7 -7 -16 -3 -15 5 -16
-5 -13 -93 4 -96 5 -99 33 -117 26 -17 38 -17 144 -6 63 6 127 15 141 19 26 7
26 7 4 14 -13 4 -23 12 -23 17 0 12 1 12 45 -7 20 -8 53 -14 73 -12 33 3 37 6
40 34 4 37 -33 78 -48 54 -8 -13 -10 -13 -10 0 0 12 -2 12 -12 1 -10 -11 -10
-14 0 -18 14 -6 16 -43 2 -43 -5 0 -10 6 -10 14 0 10 -9 13 -29 10 -21 -4 -33
0 -44 15 -7 12 -17 18 -20 14 -10 -9 -8 20 2 35 4 8 21 13 37 11 73 -6 83 8
28 37 -34 18 -36 18 -48 2 -7 -10 -18 -18 -25 -18 -6 0 -11 -14 -11 -30 0 -20
-6 -33 -17 -37 -10 -3 -27 -15 -37 -26 -19 -20 -19 -20 15 -13 29 5 36 2 48
-16 12 -20 12 -21 0 -12 -9 8 -32 9 -69 4 -30 -4 -58 -6 -62 -3 -5 2 -8 -1 -8
-6 0 -6 12 -12 28 -12 24 -1 23 -2 -8 -8 -19 -4 -45 -5 -57 -3 -18 4 -22 9
-17 28 4 13 2 30 -4 37 -7 8 -7 17 2 29 10 14 26 16 86 13 41 -2 78 -1 82 1 4
3 -2 15 -13 28 -12 14 -21 28 -21 33 1 23 -23 33 -64 27 -53 -8 -84 2 -84 27
0 10 -4 19 -10 19 -18 0 -11 18 10 25 17 5 20 15 20 60 0 61 -15 80 -30 38z
m28 -191 c6 -18 -15 -14 -22 4 -4 10 -1 14 6 12 6 -2 14 -10 16 -16z m122 -31
c0 -5 -7 -12 -16 -15 -14 -5 -15 -4 -4 9 14 17 20 19 20 6z m-150 -22 c0 -5
-9 -9 -20 -9 -22 0 -27 16 -7 23 15 5 27 -1 27 -14z m385 -39 c3 -5 2 -10 -4
-10 -5 0 -13 5 -16 10 -3 6 -2 10 4 10 5 0 13 -4 16 -10z"/>
<path d="M4065 2280 c-3 -5 -1 -10 4 -10 6 0 11 5 11 10 0 6 -2 10 -4 10 -3 0
-8 -4 -11 -10z"/>
<path d="M5065 2230 c-3 -5 1 -10 9 -10 9 0 16 5 16 10 0 6 -4 10 -9 10 -6 0
-13 -4 -16 -10z"/>
<path d="M495 2200 c-3 -5 1 -10 10 -10 9 0 13 5 10 10 -3 6 -8 10 -10 10 -2
0 -7 -4 -10 -10z"/>
<path d="M4907 2191 c3 -12 9 -21 14 -21 14 0 11 16 -5 29 -12 10 -13 8 -9 -8z"/>
<path d="M1800 2164 c0 -14 3 -14 15 -4 8 7 15 14 15 16 0 2 -7 4 -15 4 -8 0
-15 -7 -15 -16z"/>
<path d="M5084 2160 c3 -14 6 -32 6 -40 1 -12 3 -11 11 3 7 13 6 23 -7 40
l-16 22 6 -25z"/>
<path d="M4679 2161 c-14 -5 -15 -8 -4 -18 10 -10 15 -9 19 4 8 20 5 22 -15
14z"/>
<path d="M5027 2152 c3 -14 -1 -22 -17 -27 -12 -4 -20 -13 -18 -22 4 -22 37
-25 46 -5 11 25 9 65 -5 69 -7 3 -10 -3 -6 -15z"/>
<path d="M4800 2136 c0 -8 7 -16 15 -20 9 -3 15 0 15 8 0 8 6 17 13 19 6 3 0
6 -15 6 -18 1 -28 -4 -28 -13z"/>
<path d="M568 2113 c-25 -4 -26 -6 -16 -29 8 -17 19 -24 40 -24 28 0 37 13 18
25 -6 4 -8 11 -4 16 3 5 10 7 15 4 5 -4 9 -1 9 4 0 11 -11 12 -62 4z"/>
<path d="M4260 2106 c0 -9 5 -16 10 -16 6 0 10 4 10 9 0 6 -4 13 -10 16 -5 3
-10 -1 -10 -9z"/>
<path d="M4850 2110 c0 -6 9 -20 20 -32 l19 -21 -2 29 c-2 27 -37 50 -37 24z"/>
<path d="M416 2103 c-15 -15 -5 -34 14 -28 13 4 22 1 26 -9 9 -25 43 -21 37 4
-3 11 0 20 6 20 6 0 11 3 11 8 0 9 -85 13 -94 5z"/>
<path d="M4197 2093 c-13 -12 -7 -23 13 -23 13 0 20 6 19 18 0 12 -2 13 -6 3
-4 -9 -7 -10 -12 -2 -4 6 -10 8 -14 4z"/>
<path d="M4945 2090 c-3 -5 1 -10 10 -10 9 0 13 5 10 10 -3 6 -8 10 -10 10 -2
0 -7 -4 -10 -10z"/>
<path d="M4700 2075 c-10 -12 -10 -15 4 -15 9 0 16 7 16 15 0 8 -2 15 -4 15
-2 0 -9 -7 -16 -15z"/>
<path d="M5060 2075 c7 -8 17 -15 22 -15 5 0 3 7 -6 15 -8 8 -18 15 -22 15 -3
0 -1 -7 6 -15z"/>
<path d="M640 2069 c0 -5 5 -7 10 -4 6 3 10 8 10 11 0 2 -4 4 -10 4 -5 0 -10
-5 -10 -11z"/>
<path d="M4745 2070 c-3 -5 -1 -10 4 -10 6 0 11 5 11 10 0 6 -2 10 -4 10 -3 0
-8 -4 -11 -10z"/>
<path d="M5007 2045 c6 -17 -22 -44 -45 -45 -17 0 -43 -26 -35 -34 3 -3 13 -1
20 6 11 9 16 9 23 -2 6 -10 0 -20 -20 -35 -34 -23 -38 -35 -11 -35 11 0 28 11
39 25 11 14 24 25 29 24 23 -4 32 4 31 30 -1 15 2 32 5 38 3 5 -3 17 -14 26
-24 21 -30 21 -22 2z"/>
<path d="M4820 2040 c-9 -6 -10 -10 -3 -10 6 0 15 5 18 10 8 12 4 12 -15 0z"/>
<path d="M5100 2035 c-7 -9 -11 -17 -9 -20 3 -2 10 5 17 15 14 24 10 26 -8 5z"/>
<path d="M4346 2031 c-4 -7 -5 -15 -2 -18 9 -9 19 4 14 18 -4 11 -6 11 -12 0z"/>
<path d="M4600 2020 c6 -11 13 -20 15 -20 3 0 5 9 5 20 0 11 -7 20 -15 20 -13
0 -14 -4 -5 -20z"/>
<path d="M4287 2023 c-12 -12 -7 -19 13 -19 11 0 20 6 20 13 0 14 -22 18 -33
6z"/>
<path d="M4630 2020 c0 -5 5 -10 11 -10 5 0 7 5 4 10 -3 6 -8 10 -11 10 -2 0
-4 -4 -4 -10z"/>
<path d="M4796 2017 c3 -10 9 -15 12 -12 3 3 0 11 -7 18 -10 9 -11 8 -5 -6z"/>
<path d="M560 2010 c-12 -8 -12 -10 5 -10 20 -1 20 -1 0 -10 -12 -4 -27 -15
-35 -25 -15 -18 -20 -17 163 -5 24 2 22 27 -3 35 -11 4 -18 11 -15 16 8 12
-96 11 -115 -1z"/>
<path d="M4050 2002 c6 -13 14 -21 18 -18 3 4 -2 14 -12 24 -18 16 -18 16 -6
-6z"/>
<path d="M4884 2009 c-3 -6 -1 -15 6 -19 6 -4 10 -16 8 -26 -3 -17 -5 -17 -26
4 -13 13 -25 22 -26 20 -9 -10 -26 -48 -26 -57 0 -6 5 -11 11 -11 6 0 8 7 5
16 -5 12 -2 15 11 9 10 -4 29 -9 43 -11 24 -3 25 0 25 41 0 43 -15 59 -31 34z"/>
<path d="M4398 2003 c7 -3 16 -2 19 1 4 3 -2 6 -13 5 -11 0 -14 -3 -6 -6z"/>
<path d="M4468 2002 c-19 -2 -28 -9 -28 -21 0 -9 -5 -22 -12 -29 -9 -9 -8 -12
5 -12 29 0 21 -35 -9 -38 -14 -1 -23 2 -19 8 3 6 -1 10 -10 10 -13 0 -14 4 -5
20 7 14 7 20 0 20 -5 0 -10 -6 -10 -14 0 -8 -6 -17 -12 -19 -10 -4 -10 -6 0
-6 6 -1 12 -8 12 -16 0 -8 5 -15 10 -15 6 0 10 -9 10 -19 0 -34 10 -49 30 -44
12 3 17 10 12 21 -5 15 -3 15 11 4 9 -8 21 -11 27 -7 5 3 10 -2 11 -12 0 -15
2 -14 11 5 6 12 19 22 29 22 27 0 33 19 13 36 -15 12 -15 14 -3 11 21 -7 35 3
44 31 l7 24 -23 -23 c-21 -21 -23 -21 -35 -5 -7 11 -18 15 -25 10 -9 -5 -10
-2 -6 10 4 10 7 22 7 28 0 6 7 7 16 4 8 -3 13 -2 10 3 -8 12 -35 17 -68 13z
m22 -116 c0 -8 -4 -17 -9 -20 -10 -7 -23 19 -14 28 11 11 23 6 23 -8z"/>
<path d="M5055 1978 c-4 -18 -1 -53 5 -78 6 -25 14 -55 17 -67 4 -17 1 -23
-11 -23 -12 0 -15 -6 -10 -25 4 -18 2 -25 -9 -25 -8 0 -17 -7 -21 -15 -3 -9 0
-15 9 -15 8 0 15 5 15 10 0 13 27 13 32 -1 5 -15 38 1 38 18 0 9 -7 21 -17 28
-9 7 -13 17 -8 25 6 10 9 9 16 -1 10 -17 13 60 3 86 -5 13 -9 14 -15 4 -4 -8
-11 -11 -14 -8 -8 9 6 40 15 34 10 -6 22 24 14 36 -9 16 -26 10 -20 -7 4 -10
1 -14 -6 -11 -8 2 -12 17 -10 36 3 41 -15 40 -23 -1z"/>
<path d="M4360 1990 c0 -5 5 -10 10 -10 6 0 10 5 10 10 0 6 -4 10 -10 10 -5 0
-10 -4 -10 -10z"/>
<path d="M3961 1980 c0 -8 4 -24 9 -35 5 -13 9 -14 9 -5 0 8 -4 24 -9 35 -5
13 -9 14 -9 5z"/>
<path d="M920 1970 c20 -13 33 -13 25 0 -3 6 -14 10 -23 10 -15 0 -15 -2 -2
-10z"/>
<path d="M4540 1960 c0 -5 5 -10 10 -10 6 0 10 5 10 10 0 6 -4 10 -10 10 -5 0
-10 -4 -10 -10z"/>
<path d="M4775 1960 c-3 -5 -1 -10 4 -10 6 0 11 5 11 10 0 6 -2 10 -4 10 -3 0
-8 -4 -11 -10z"/>
<path d="M470 1948 c0 -11 28 -10 35 1 3 6 -4 9 -15 8 -11 -1 -20 -5 -20 -9z"/>
<path d="M4784 1918 c1 -30 21 -33 24 -3 1 15 -3 25 -12 25 -7 0 -13 -10 -12
-22z"/>
<path d="M780 1904 c0 -8 5 -12 10 -9 6 3 10 10 10 16 0 5 -4 9 -10 9 -5 0
-10 -7 -10 -16z"/>
<path d="M1035 1880 c4 -19 7 -41 8 -47 1 -18 72 -17 87 1 6 8 10 25 8 38 -3
21 -8 23 -47 20 -28 -2 -48 2 -54 10 -5 8 -6 0 -2 -22z"/>
<path d="M4303 1898 c-20 -26 -26 -41 -14 -34 6 4 17 3 24 -2 18 -14 46 -11
40 5 -3 7 -13 12 -22 11 -10 -2 -15 3 -13 15 3 20 -2 22 -15 5z"/>
<path d="M4050 1891 c0 -5 9 -7 20 -4 11 3 20 7 20 9 0 2 -9 4 -20 4 -11 0
-20 -4 -20 -9z"/>
<path d="M4640 1889 c0 -5 5 -7 10 -4 6 3 10 8 10 11 0 2 -4 4 -10 4 -5 0 -10
-5 -10 -11z"/>
<path d="M330 1860 l-25 -8 28 -1 c15 -1 27 4 27 9 0 6 -1 10 -2 9 -2 -1 -14
-5 -28 -9z"/>
<path d="M777 1855 c-4 -8 -2 -17 3 -20 6 -4 10 3 10 14 0 25 -6 27 -13 6z"/>
<path d="M4635 1861 c-3 -6 4 -9 15 -8 11 1 20 5 20 9 0 11 -28 10 -35 -1z"/>
<path d="M4860 1856 c0 -20 39 -61 48 -50 4 3 1 9 -5 11 -7 3 -13 10 -13 18 0
7 -7 18 -15 25 -12 10 -15 10 -15 -4z"/>
<path d="M4968 1838 c0 -18 -1 -39 -1 -45 1 -7 -9 -13 -22 -13 -29 0 -41 -16
-50 -66 -6 -39 -5 -42 21 -48 28 -7 52 9 69 49 8 19 8 19 13 1 3 -15 6 -16 12
-5 5 7 4 21 -1 31 -6 10 -7 23 -4 28 3 5 -2 21 -11 35 -19 29 -14 41 13 30 12
-5 14 -9 6 -12 -18 -7 -16 -20 4 -27 10 -4 14 -4 10 0 -4 4 -2 13 4 20 13 16
-4 37 -39 48 -19 7 -22 4 -24 -26z m-7 -108 c6 0 7 5 4 10 -3 6 0 10 8 10 29
0 -4 -45 -34 -47 l-28 -2 17 36 c15 31 17 33 20 15 2 -12 8 -22 13 -22z"/>
<path d="M4086 1845 c-3 -9 -11 -13 -17 -9 -8 4 -9 3 -5 -4 8 -14 32 -16 40
-4 2 4 1 14 -3 21 -6 10 -10 9 -15 -4z"/>
<path d="M4178 1833 c7 -3 16 -2 19 1 4 3 -2 6 -13 5 -11 0 -14 -3 -6 -6z"/>
<path d="M4222 1810 c0 -19 2 -27 5 -17 2 9 2 25 0 35 -3 9 -5 1 -5 -18z"/>
<path d="M4936 1825 c4 -8 7 -15 9 -15 2 0 5 7 9 15 3 9 0 15 -9 15 -9 0 -12
-6 -9 -15z"/>
<path d="M4533 1800 c6 -23 -2 -30 -46 -37 -40 -6 -41 -7 -29 -30 10 -17 11
-17 17 -1 7 17 9 17 35 -2 l28 -20 26 25 c26 24 26 25 6 37 -11 7 -20 21 -20
30 0 10 -5 18 -11 18 -6 0 -9 -9 -6 -20z"/>
<path d="M4790 1805 c-7 -8 -19 -15 -26 -15 -8 0 -14 -7 -14 -16 0 -14 2 -14
16 1 9 9 29 19 45 22 16 3 29 9 29 14 0 15 -37 10 -50 -6z"/>
<path d="M4276 1783 c-6 -14 -5 -15 5 -6 7 7 10 15 7 18 -3 3 -9 -2 -12 -12z"/>
<path d="M4715 1780 c3 -5 10 -10 16 -10 5 0 9 5 9 10 0 6 -7 10 -16 10 -8 0
-12 -4 -9 -10z"/>
<path d="M4860 1780 c-11 -7 -7 -10 18 -10 17 0 32 5 32 10 0 13 -30 13 -50 0z"/>
<path d="M150 1770 c0 -5 7 -10 15 -10 8 0 15 5 15 10 0 6 -7 10 -15 10 -8 0
-15 -4 -15 -10z"/>
<path d="M4058 1763 c7 -3 16 -2 19 1 4 3 -2 6 -13 5 -11 0 -14 -3 -6 -6z"/>
<path d="M4190 1761 c0 -14 23 -29 36 -24 22 8 16 20 -11 25 -14 3 -25 2 -25
-1z"/>
<path d="M277 1754 c-3 -4 -17 -8 -30 -9 -13 -2 -49 -8 -80 -15 -46 -9 -57
-15 -57 -31 0 -15 7 -19 33 -19 58 1 190 29 198 42 15 23 -44 52 -64 32z"/>
<path d="M4828 1752 c10 -7 10 -15 2 -37 -15 -39 6 -51 36 -22 24 23 23 37 -4
38 -11 0 -12 2 -4 6 18 7 4 23 -21 23 -15 0 -18 -3 -9 -8z"/>
<path d="M787 1713 c-3 -16 -1 -32 4 -37 5 -6 9 4 9 27 0 44 -6 48 -13 10z"/>
<path d="M4681 1714 c0 -11 3 -14 6 -6 3 7 2 16 -1 19 -3 4 -6 -2 -5 -13z"/>
<path d="M4185 1710 c4 -6 11 -8 16 -5 14 9 11 15 -7 15 -8 0 -12 -5 -9 -10z"/>
<path d="M5035 1710 c-3 -5 -1 -10 4 -10 6 0 11 5 11 10 0 6 -2 10 -4 10 -3 0
-8 -4 -11 -10z"/>
<path d="M5082 1690 c1 -17 5 -33 10 -36 5 -3 3 -13 -4 -21 -10 -13 -9 -15 7
-12 21 4 36 59 16 59 -6 0 -11 9 -11 20 0 11 -4 20 -9 20 -5 0 -9 -14 -9 -30z"/>
<path d="M4132 1684 c-7 -8 -8 -14 -3 -14 10 0 25 19 20 25 -2 1 -10 -3 -17
-11z"/>
<path d="M4320 1691 c0 -6 5 -13 10 -16 6 -3 10 1 10 9 0 9 -4 16 -10 16 -5 0
-10 -4 -10 -9z"/>
<path d="M4472 1670 c0 -14 2 -19 5 -12 2 6 2 18 0 25 -3 6 -5 1 -5 -13z"/>
<path d="M4752 1680 c-19 -8 -21 -13 -12 -30 12 -23 47 -27 47 -5 0 8 -4 15
-8 15 -5 0 -6 7 -3 15 7 17 7 17 -24 5z"/>
<path d="M4860 1659 c0 -5 5 -7 10 -4 6 3 10 8 10 11 0 2 -4 4 -10 4 -5 0 -10
-5 -10 -11z"/>
<path d="M4526 1648 c-10 -6 -23 -11 -29 -13 -25 -5 -53 -19 -65 -34 -12 -14
-13 -12 -7 12 7 33 -10 36 -36 5 -25 -31 -24 -35 12 -36 19 0 37 -9 46 -21 8
-12 19 -21 25 -21 17 0 57 52 51 67 -3 8 2 13 15 13 23 0 37 26 18 33 -7 3
-20 0 -30 -5z"/>
<path d="M4590 1660 c-1 -3 -3 -18 -5 -35 -3 -24 -2 -27 6 -12 6 10 8 25 6 35
-3 9 -6 15 -7 12z"/>
<path d="M5001 1651 c-7 -5 -12 -13 -10 -18 2 -5 12 -1 22 9 18 19 12 24 -12
9z"/>
<path d="M4310 1628 c0 -17 2 -18 15 -8 8 7 15 14 15 15 0 2 -7 5 -15 9 -10 4
-15 -1 -15 -16z"/>
<path d="M4695 1635 c-3 -8 -7 -21 -9 -28 -3 -11 3 -11 30 -3 41 13 46 29 7
21 -16 -3 -22 -2 -15 1 15 7 16 24 2 24 -6 0 -13 -7 -15 -15z"/>
<path d="M4810 1642 c0 -24 57 -38 76 -20 5 6 -3 9 -58 24 -10 3 -18 1 -18 -4z"/>
<path d="M4146 1613 c-10 -10 -7 -33 5 -33 5 0 8 4 5 9 -4 5 -1 11 6 13 8 3 9
6 1 11 -5 4 -13 4 -17 0z"/>
<path d="M4960 1610 c0 -5 5 -10 11 -10 5 0 7 5 4 10 -3 6 -8 10 -11 10 -2 0
-4 -4 -4 -10z"/>
<path d="M630 1597 c-67 -11 -101 -16 -140 -21 -54 -7 -82 -12 -125 -24 -22
-5 -58 -11 -80 -11 -75 -2 -141 -7 -151 -13 -5 -3 -26 -5 -47 -3 -21 1 -40 -2
-43 -7 -3 -4 -14 -8 -25 -8 -19 0 -19 -10 -18 -375 0 -224 4 -377 10 -381 5
-3 7 -10 4 -15 -4 -5 -1 -9 4 -9 6 0 11 5 11 10 0 6 7 10 15 10 8 0 15 3 15 8
0 10 51 33 61 27 4 -3 31 1 61 9 108 29 198 55 207 60 12 8 21 46 10 46 -5 0
-9 -4 -9 -10 0 -22 -26 -8 -37 20 -13 34 -13 33 22 20 19 -7 25 -7 24 3 -3 27
2 36 17 30 10 -4 22 1 30 12 8 10 16 16 19 13 4 -3 -5 -18 -19 -33 -19 -21
-24 -34 -20 -54 10 -40 17 -43 65 -23 24 11 66 22 93 26 77 12 154 51 162 83
4 14 4 96 0 181 -7 172 -11 181 -74 182 -24 0 -31 -3 -26 -12 5 -9 2 -9 -9 1
-9 7 -17 26 -17 42 0 29 13 38 25 19 3 -5 1 -10 -5 -10 -6 0 -9 -4 -6 -9 4 -5
16 -4 31 2 13 7 20 16 15 20 -12 13 -110 20 -110 8 0 -16 -30 -41 -48 -41 -10
0 -13 3 -6 8 6 4 13 15 17 25 5 14 1 17 -23 17 -18 0 -30 5 -30 13 0 9 12 11
38 9 32 -3 39 -1 39 15 0 10 -4 23 -9 29 -12 16 44 37 83 32 19 -3 47 3 71 14
33 16 39 23 36 46 -3 30 -23 34 -108 19z m-208 -140 c2 -14 11 -23 26 -25 30
-5 28 -30 -3 -37 -78 -16 -72 -18 -69 22 1 21 -1 43 -7 49 -6 8 0 11 20 12 23
0 30 -4 33 -21z m-72 3 c0 -5 -5 -10 -11 -10 -5 0 -7 5 -4 10 3 6 8 10 11 10
2 0 4 -4 4 -10z m-114 -74 c18 -19 18 -36 -1 -36 -9 0 -12 6 -8 17 5 13 2 15
-18 9 -13 -4 -40 -10 -59 -13 -31 -6 -34 -5 -22 10 8 9 30 18 50 20 20 2 38 4
40 5 2 1 10 -4 18 -12z m89 -16 c-19 -8 -19 -9 3 -9 30 -1 18 -21 -13 -21 -27
0 -41 27 -17 33 30 8 48 6 27 -3z m133 -8 c2 -8 -9 -12 -35 -12 -38 1 -38 1
-13 15 28 16 42 15 48 -3z m-18 -38 c0 -2 -11 -4 -25 -4 -14 0 -25 4 -25 9 0
4 11 6 25 3 14 -2 25 -6 25 -8z m220 -84 c0 -13 -11 -13 -30 0 -12 8 -11 10 8
10 12 0 22 -4 22 -10z m-271 -122 c-27 -10 -35 -4 -18 15 10 11 17 12 27 4 11
-9 9 -13 -9 -19z m78 -44 c-3 -3 -12 -4 -19 -1 -8 3 -5 6 6 6 11 1 17 -2 13
-5z m-13 -45 c-8 -14 -21 -11 -21 5 0 8 6 12 14 9 7 -3 10 -9 7 -14z m-122
-31 c-7 -7 -12 -8 -12 -2 0 14 12 26 19 19 2 -3 -1 -11 -7 -17z m-198 -179
c-7 -12 -64 -12 -64 0 0 5 5 11 12 13 19 7 58 -3 52 -13z"/>
<path d="M3990 1596 c0 -9 5 -16 10 -16 6 0 10 4 10 9 0 6 -4 13 -10 16 -5 3
-10 -1 -10 -9z"/>
<path d="M4100 1596 c0 -9 5 -16 10 -16 6 0 10 4 10 9 0 6 -4 13 -10 16 -5 3
-10 -1 -10 -9z"/>
<path d="M4324 1583 c-9 -14 -14 -15 -26 -6 -29 25 -51 -25 -25 -58 16 -21 81
-43 85 -29 4 10 54 40 67 40 3 0 5 -9 5 -19 0 -22 16 -36 24 -22 20 31 -57 71
-96 50 -11 -6 -27 -8 -35 -4 -14 5 -14 7 -1 18 17 13 31 47 20 47 -4 0 -12 -8
-18 -17z"/>
<path d="M4550 1589 c0 -5 5 -7 10 -4 6 3 10 8 10 11 0 2 -4 4 -10 4 -5 0 -10
-5 -10 -11z"/>
<path d="M5048 1593 c-9 -2 -19 -15 -22 -29 -4 -15 -11 -22 -18 -18 -7 5 -9
-1 -5 -18 5 -17 2 -30 -8 -38 -13 -11 -15 -7 -15 24 0 30 -4 36 -20 36 -25 0
-38 -29 -19 -40 21 -14 3 -23 -20 -11 -11 6 -22 7 -25 2 -3 -5 10 -12 29 -15
23 -5 39 -15 48 -32 l13 -25 27 42 c15 22 27 47 27 54 0 7 9 24 20 38 21 26
17 36 -12 30z"/>
<path d="M4020 1564 c0 -11 5 -14 16 -10 9 3 22 6 30 6 8 0 14 5 14 10 0 6
-13 10 -30 10 -21 0 -30 -5 -30 -16z"/>
<path d="M4190 1573 c-30 -6 -52 -23 -29 -23 9 0 21 -10 28 -22 l12 -23 -5 23
c-3 14 1 22 10 22 8 0 14 7 14 15 0 8 -1 14 -2 14 -2 -1 -14 -4 -28 -6z"/>
<path d="M4513 1551 c-9 -12 -23 -21 -30 -21 -7 0 -13 -7 -13 -15 0 -8 7 -15
15 -15 8 0 14 -3 14 -7 -3 -20 2 -34 11 -28 6 3 13 -1 16 -9 7 -18 34 -22 34
-6 0 6 -4 10 -10 10 -5 0 -10 9 -10 20 0 11 -4 20 -10 20 -5 0 -10 9 -10 20 0
11 5 20 10 20 6 0 10 -7 10 -15 0 -20 16 -19 24 1 4 9 5 17 4 18 -2 1 -11 7
-20 15 -14 11 -20 9 -35 -8z"/>
<path d="M4575 1560 c3 -5 10 -10 16 -10 5 0 9 5 9 10 0 6 -7 10 -16 10 -8 0
-12 -4 -9 -10z"/>
<path d="M4650 1551 c0 -6 -8 -11 -17 -12 -15 0 -15 -2 2 -9 11 -5 16 -9 10
-10 -5 0 -2 -5 8 -11 28 -16 38 3 16 30 -10 13 -19 18 -19 12z"/>
<path d="M4860 1539 c0 -5 5 -7 10 -4 6 3 10 8 10 11 0 2 -4 4 -10 4 -5 0 -10
-5 -10 -11z"/>
<path d="M3851 1524 c0 -11 3 -14 6 -6 3 7 2 16 -1 19 -3 4 -6 -2 -5 -13z"/>
<path d="M4061 1523 c-6 -10 -11 -13 -11 -6 0 7 -7 10 -15 7 -8 -4 -13 -10
-10 -14 3 -4 -2 -10 -10 -14 -17 -6 -19 -15 -6 -35 7 -11 13 -10 35 4 14 10
26 13 26 9 0 -5 4 -2 10 6 5 9 5 19 -2 27 -8 10 -6 13 10 13 11 0 25 -7 32
-15 9 -10 17 -12 23 -6 5 5 17 7 26 4 14 -4 14 -3 1 6 -8 6 -25 11 -37 11 -13
0 -23 5 -23 10 0 17 -38 11 -49 -7z m-1 -27 c0 -3 -4 -8 -10 -11 -5 -3 -10 -1
-10 4 0 6 5 11 10 11 6 0 10 -2 10 -4z"/>
<path d="M3898 1503 c7 -3 16 -2 19 1 4 3 -2 6 -13 5 -11 0 -14 -3 -6 -6z"/>
<path d="M4574 1464 c1 -22 7 -39 15 -42 10 -3 12 0 8 12 -6 15 3 20 31 17 13
-2 15 9 6 33 -8 21 -24 20 -24 -1 0 -15 -2 -15 -19 1 -18 16 -19 16 -17 -20z"/>
<path d="M5096 1485 c4 -8 10 -15 15 -15 5 0 9 7 9 15 0 8 -7 15 -15 15 -9 0
-12 -6 -9 -15z"/>
<path d="M580 1485 c0 -3 11 -18 25 -33 19 -20 25 -23 25 -10 0 17 26 32 41
22 12 -7 49 5 49 17 0 5 -31 9 -70 9 -38 0 -70 -2 -70 -5z"/>
<path d="M4145 1480 c-4 -6 -10 -8 -15 -5 -4 3 -14 -2 -21 -11 -11 -14 -10
-16 6 -13 11 2 30 -2 43 -9 16 -9 22 -10 22 -1 0 6 7 8 16 5 30 -12 36 6 7 25
-32 21 -49 24 -58 9z"/>
<path d="M1220 1470 c-9 -6 -10 -10 -3 -10 6 0 15 5 18 10 8 12 4 12 -15 0z"/>
<path d="M4865 1471 c-7 -12 12 -24 25 -16 11 7 4 25 -10 25 -5 0 -11 -4 -15
-9z"/>
<path d="M4315 1460 c3 -5 8 -10 11 -10 2 0 4 5 4 10 0 6 -5 10 -11 10 -5 0
-7 -4 -4 -10z"/>
<path d="M4345 1460 c-3 -5 -1 -10 5 -10 6 0 8 -5 5 -10 -4 -6 -10 -8 -15 -5
-15 9 -22 -15 -10 -30 16 -20 34 -19 26 1 -5 12 -1 14 15 9 18 -6 20 -5 10 14
-9 15 -9 21 -1 21 6 0 8 5 5 10 -3 6 -12 10 -20 10 -8 0 -17 -4 -20 -10z"/>
<path d="M3991 1444 c0 -11 3 -14 6 -6 3 7 2 16 -1 19 -3 4 -6 -2 -5 -13z"/>
<path d="M3750 1439 c0 -5 5 -7 10 -4 6 3 10 8 10 11 0 2 -4 4 -10 4 -5 0 -10
-5 -10 -11z"/>
<path d="M5103 1436 c3 -8 1 -16 -5 -18 -7 -3 -8 -10 -3 -18 7 -11 10 -10 16
6 11 28 10 44 -2 44 -6 0 -9 -6 -6 -14z"/>
<path d="M3890 1414 c-13 -32 -13 -51 -1 -38 10 11 24 64 16 64 -3 0 -10 -12
-15 -26z"/>
<path d="M4052 1423 c-6 -10 -14 -17 -19 -15 -4 2 -9 -1 -11 -6 -4 -14 30 -25
38 -12 4 7 21 9 43 6 25 -4 37 -2 41 9 6 18 1 21 -46 30 -29 6 -38 3 -46 -12z"/>
<path d="M4296 1421 c4 -16 3 -21 -5 -17 -6 4 -11 0 -11 -8 0 -9 4 -16 9 -16
15 0 22 31 11 48 -9 14 -10 12 -4 -7z"/>
<path d="M4507 1420 c3 -11 7 -20 9 -20 2 0 4 9 4 20 0 11 -4 20 -9 20 -5 0
-7 -9 -4 -20z"/>
<path d="M678 1423 c7 -3 16 -2 19 1 4 3 -2 6 -13 5 -11 0 -14 -3 -6 -6z"/>
<path d="M4240 1408 c0 -19 18 -43 25 -36 9 9 -4 48 -16 48 -5 0 -9 -6 -9 -12z"/>
<path d="M3791 1402 c-1 -9 -9 -11 -23 -8 l-23 6 23 -12 c24 -12 37 -7 29 14
-4 11 -6 11 -6 0z"/>
<path d="M4970 1406 c0 -2 8 -10 18 -17 15 -13 16 -12 3 4 -13 16 -21 21 -21
13z"/>
<path d="M4378 1379 c-3 -8 -2 -23 2 -33 6 -18 7 -18 13 -2 4 10 3 25 -1 33
-7 12 -10 13 -14 2z"/>
<path d="M4400 1380 c0 -5 9 -10 21 -10 11 0 17 5 14 10 -3 6 -13 10 -21 10
-8 0 -14 -4 -14 -10z"/>
<path d="M4650 1379 c0 -5 5 -7 10 -4 6 3 10 8 10 11 0 2 -4 4 -10 4 -5 0 -10
-5 -10 -11z"/>
<path d="M665 1370 c3 -5 11 -10 16 -10 6 0 7 5 4 10 -3 6 -11 10 -16 10 -6 0
-7 -4 -4 -10z"/>
<path d="M1255 1370 c-3 -5 -2 -10 4 -10 5 0 13 5 16 10 3 6 2 10 -4 10 -5 0
-13 -4 -16 -10z"/>
<path d="M3702 1371 c4 -13 18 -16 19 -4 0 4 -5 9 -11 12 -7 2 -11 -2 -8 -8z"/>
<path d="M3986 1355 c-3 -8 -1 -15 4 -15 6 0 10 7 10 15 0 8 -2 15 -4 15 -2 0
-6 -7 -10 -15z"/>
<path d="M3736 1351 c-4 -7 -5 -15 -2 -18 9 -9 19 4 14 18 -4 11 -6 11 -12 0z"/>
<path d="M4548 1346 c-21 -15 -23 -26 -6 -26 6 0 25 -15 40 -32 28 -31 29 -20
2 12 -7 8 -14 25 -16 37 -3 19 -5 20 -20 9z"/>
<path d="M5040 1350 c0 -5 5 -10 11 -10 5 0 7 5 4 10 -3 6 -8 10 -11 10 -2 0
-4 -4 -4 -10z"/>
<path d="M3925 1340 c-3 -5 -1 -10 4 -10 6 0 11 -6 11 -13 0 -7 9 -18 20 -25
19 -11 20 -10 18 10 -6 43 -37 65 -53 38z"/>
<path d="M4018 1325 c-20 -27 -23 -45 -8 -45 6 0 10 -7 10 -16 0 -11 -6 -15
-20 -11 -10 3 -24 -1 -31 -9 -23 -28 39 -15 66 13 25 27 34 50 16 38 -5 -3
-12 -1 -15 4 -10 16 5 40 27 44 20 4 19 4 -3 5 -16 1 -31 -8 -42 -23z"/>
<path d="M4980 1336 c0 -8 5 -18 10 -21 6 -3 10 3 10 14 0 12 -4 21 -10 21 -5
0 -10 -6 -10 -14z"/>
<path d="M4208 1333 c7 -3 16 -2 19 1 4 3 -2 6 -13 5 -11 0 -14 -3 -6 -6z"/>
<path d="M4430 1331 c0 -5 10 -11 23 -15 31 -8 37 -7 37 5 0 6 -7 9 -15 5 -8
-3 -15 -1 -15 4 0 6 -7 10 -15 10 -8 0 -15 -4 -15 -9z"/>
<path d="M3707 1315 c-8 -18 11 -31 25 -17 11 11 3 32 -12 32 -4 0 -10 -7 -13
-15z"/>
<path d="M4468 1293 c-21 -5 -23 -18 -5 -30 12 -8 16 -9 70 -12 16 0 30 -8 34
-18 3 -10 13 -27 22 -37 12 -14 13 -20 3 -23 -6 -3 -10 -9 -6 -14 8 -13 -10
-11 -25 4 -11 10 -13 9 -7 -6 3 -10 6 -29 6 -41 0 -30 30 -63 53 -58 9 2 15 8
12 13 -3 5 -1 17 4 28 11 21 4 53 -30 129 -16 35 -24 42 -48 42 -16 0 -34 7
-41 15 -7 8 -15 14 -19 14 -3 -1 -14 -3 -23 -6z"/>
<path d="M5078 1293 c7 -3 16 -2 19 1 4 3 -2 6 -13 5 -11 0 -14 -3 -6 -6z"/>
<path d="M3765 1280 c-3 -5 3 -10 14 -10 10 0 28 -3 38 -6 10 -3 7 2 -7 10
-30 18 -37 19 -45 6z"/>
<path d="M1213 1244 c4 -21 7 -50 7 -63 0 -20 2 -21 15 -11 8 7 15 20 15 30 0
23 31 50 58 50 12 0 22 5 22 11 0 6 -19 9 -48 8 -26 -1 -54 1 -62 6 -10 6 -12
0 -7 -31z"/>
<path d="M3890 1270 c0 -5 4 -10 9 -10 6 0 13 5 16 10 3 6 -1 10 -9 10 -9 0
-16 -4 -16 -10z"/>
<path d="M1855 1260 c-3 -5 -1 -10 4 -10 6 0 11 5 11 10 0 6 -2 10 -4 10 -3 0
-8 -4 -11 -10z"/>
<path d="M4256 1245 c4 -8 10 -15 15 -15 5 0 9 7 9 15 0 8 -7 15 -15 15 -9 0
-12 -6 -9 -15z"/>
<path d="M4305 1229 c-4 -6 -5 -13 -2 -16 7 -7 27 6 27 18 0 12 -17 12 -25 -2z"/>
<path d="M4335 1179 c-4 -6 -5 -13 -2 -16 7 -7 27 6 27 18 0 12 -17 12 -25 -2z"/>
<path d="M1283 1148 c-13 -6 -23 -17 -23 -25 0 -11 192 -114 251 -135 23 -8 6
-17 -68 -36 -78 -21 -165 -64 -205 -102 -30 -28 -127 -209 -127 -237 0 -19
-19 -116 -24 -117 -1 -1 -18 -8 -37 -16 -21 -8 -70 -14 -121 -15 -86 0 -112
-9 -141 -49 -4 -6 -34 -5 -74 2 -45 8 -72 8 -80 1 -7 -5 -24 -8 -38 -5 -16 3
-38 -4 -61 -19 -19 -14 -35 -22 -35 -19 0 3 -12 -4 -26 -15 -35 -28 -83 -27
-126 2 -60 41 -99 40 -152 -2 -17 -14 -18 -14 -11 -1 5 8 -8 2 -28 -13 -20
-15 -37 -25 -37 -22 0 3 -9 1 -20 -5 -11 -6 -20 -17 -20 -24 0 -7 -17 -26 -38
-43 l-38 -31 -3 -111 -2 -111 908 0 c890 0 909 1 909 20 0 15 -3 17 -15 7 -10
-8 -13 -8 -8 -1 4 7 0 17 -8 24 -7 6 -11 18 -8 26 3 8 0 14 -7 14 -7 0 -10 7
-6 16 3 8 2 13 -3 9 -5 -3 -12 7 -15 22 -4 16 -9 39 -12 53 -3 14 -8 61 -10
105 -3 80 -3 80 10 35 l13 -45 0 65 c-1 36 3 112 7 170 16 199 -52 514 -112
526 -9 2 -9 1 -1 -3 16 -8 -79 -65 -99 -60 -12 3 -10 5 6 6 31 1 27 12 -13 39
-33 21 -48 52 -25 52 27 0 4 23 -47 46 -63 29 -145 39 -180 22z m177 -42 c0
-11 -19 -15 -25 -6 -3 5 1 10 9 10 9 0 16 -2 16 -4z m-793 -692 c-3 -3 -12 -4
-19 -1 -8 3 -5 6 6 6 11 1 17 -2 13 -5z m163 -4 c0 -5 -7 -10 -16 -10 -8 0
-12 5 -9 10 3 6 10 10 16 10 5 0 9 -4 9 -10z"/>
<path d="M4467 1135 c6 -17 25 -15 31 3 2 7 -5 12 -17 12 -14 0 -19 -5 -14
-15z"/>
<path d="M4810 1139 c0 -5 5 -7 10 -4 6 3 10 8 10 11 0 2 -4 4 -10 4 -5 0 -10
-5 -10 -11z"/>
<path d="M5040 1115 c0 -38 6 -42 33 -21 15 12 16 14 2 20 -8 3 -15 12 -15 21
0 8 -4 15 -10 15 -5 0 -10 -16 -10 -35z"/>
<path d="M5072 1139 c2 -7 10 -15 17 -17 8 -3 12 1 9 9 -2 7 -10 15 -17 17 -8
3 -12 -1 -9 -9z"/>
<path d="M3629 1124 c-12 -14 -11 -16 5 -13 11 2 21 10 24 17 5 17 -13 15 -29
-4z"/>
<path d="M4508 1113 c7 -3 16 -2 19 1 4 3 -2 6 -13 5 -11 0 -14 -3 -6 -6z"/>
<path d="M4660 1109 c0 -5 5 -7 10 -4 6 3 10 8 10 11 0 2 -4 4 -10 4 -5 0 -10
-5 -10 -11z"/>
<path d="M4993 1110 c-13 -5 -23 -15 -22 -22 0 -10 2 -10 6 0 2 6 14 12 25 12
15 0 18 -4 13 -21 -5 -15 -4 -19 4 -15 12 8 15 56 4 55 -5 0 -18 -4 -30 -9z"/>
<path d="M2053 1103 c9 -2 17 -9 17 -14 0 -5 7 -9 16 -9 14 0 14 3 4 15 -7 8
-22 14 -34 14 -17 -1 -17 -2 -3 -6z"/>
<path d="M4480 1093 c0 -12 8 -27 18 -33 15 -10 15 -11 0 -6 -23 7 -34 -29
-14 -49 8 -9 17 -11 21 -6 3 6 -3 15 -12 21 -16 10 -16 11 5 7 12 -3 22 -2 22
1 0 4 3 17 6 30 4 14 2 22 -6 22 -7 0 -19 8 -26 18 -12 16 -13 15 -14 -5z"/>
<path d="M4880 1091 c-6 -12 -7 -21 -1 -21 10 0 24 30 17 37 -2 3 -9 -5 -16
-16z"/>
<path d="M1176 1093 c-9 -9 -7 -33 3 -33 12 0 22 28 12 34 -5 3 -11 3 -15 -1z"/>
<path d="M5080 1080 c0 -5 5 -10 10 -10 6 0 10 5 10 10 0 6 -4 10 -10 10 -5 0
-10 -4 -10 -10z"/>
<path d="M1795 1060 c3 -5 10 -10 16 -10 5 0 9 5 9 10 0 6 -7 10 -16 10 -8 0
-12 -4 -9 -10z"/>
<path d="M4390 990 c0 -5 5 -10 11 -10 5 0 7 5 4 10 -3 6 -8 10 -11 10 -2 0
-4 -4 -4 -10z"/>
<path d="M4511 986 c-16 -19 -5 -41 13 -27 7 6 15 9 18 6 3 -3 11 2 19 12 12
15 12 16 -5 10 -11 -5 -22 -3 -26 3 -5 7 -11 6 -19 -4z"/>
<path d="M802 975 c-11 -13 -9 -15 8 -15 17 0 20 -4 15 -20 -7 -23 4 -24 70
-11 23 5 30 9 17 10 -12 0 -25 7 -28 15 -4 11 -59 39 -68 36 -1 -1 -7 -7 -14
-15z"/>
<path d="M1202 978 c-32 -42 -19 -99 18 -76 10 7 17 15 14 19 -12 19 21 20 37
1 37 -46 40 -14 3 35 -26 34 -54 42 -72 21z"/>
<path d="M4636 981 c-11 -4 -15 -10 -10 -13 5 -4 18 0 29 8 20 15 12 17 -19 5z"/>
<path d="M5020 980 c0 -5 7 -10 16 -10 8 0 12 5 9 10 -3 6 -10 10 -16 10 -5 0
-9 -4 -9 -10z"/>
<path d="M5100 968 c0 -7 5 -20 10 -28 8 -12 10 -9 10 13 0 15 -4 27 -10 27
-5 0 -10 -6 -10 -12z"/>
<path d="M4430 964 c0 -3 4 -14 10 -24 7 -13 6 -19 -6 -24 -8 -3 -12 -10 -9
-16 9 -15 25 -12 25 5 0 8 4 15 10 15 6 0 5 10 -2 25 -10 22 -28 35 -28 19z"/>
<path d="M4460 960 c0 -5 4 -10 9 -10 5 0 11 -9 14 -21 6 -23 37 -23 45 0 3 9
0 11 -8 6 -7 -4 -18 1 -26 14 -16 22 -34 28 -34 11z"/>
<path d="M4980 962 c0 -16 28 -34 34 -23 4 6 -3 15 -14 21 -11 6 -20 7 -20 2z"/>
<path d="M4800 945 c0 -9 6 -12 15 -9 8 4 12 10 9 15 -8 14 -24 10 -24 -6z"/>
<path d="M4730 940 c0 -5 6 -9 13 -7 8 1 11 -9 9 -30 -1 -23 2 -33 12 -33 8 0
17 4 20 9 3 4 17 6 31 3 21 -3 24 -1 19 12 -4 10 -12 15 -19 12 -8 -3 -25 6
-40 20 -27 25 -45 31 -45 14z"/>
<path d="M5045 930 c3 -5 13 -10 21 -10 8 0 14 -10 14 -22 0 -19 -2 -20 -10
-8 -6 9 -10 10 -10 3 0 -6 -10 -13 -22 -15 -30 -4 -32 -20 -5 -52 16 -18 29
-25 40 -20 10 3 17 1 17 -5 0 -6 -5 -11 -11 -11 -14 0 -2 -18 22 -30 18 -10
19 -7 19 71 0 45 -3 80 -6 76 -3 -3 -15 3 -27 14 -21 20 -53 27 -42 9z m10
-80 c3 -5 1 -10 -4 -10 -6 0 -11 5 -11 10 0 6 2 10 4 10 3 0 8 -4 11 -10z"/>
<path d="M4930 915 c0 -8 5 -15 10 -15 6 0 10 7 10 15 0 8 -4 15 -10 15 -5 0
-10 -7 -10 -15z"/>
<path d="M4670 896 c0 -9 5 -16 10 -16 6 0 10 4 10 9 0 6 -4 13 -10 16 -5 3
-10 -1 -10 -9z"/>
<path d="M1200 862 c0 -7 -14 -19 -30 -26 -30 -12 -32 -30 -2 -19 11 5 13 3 7
-8 -4 -8 5 -2 21 13 22 22 26 30 16 40 -9 9 -12 9 -12 0z"/>
<path d="M4754 844 c-18 -14 -18 -14 0 -7 13 4 17 3 12 -5 -9 -14 7 -23 24
-12 11 7 11 11 -2 24 -14 13 -18 13 -34 0z"/>
<path d="M4890 850 c0 -5 5 -10 11 -10 5 0 7 5 4 10 -3 6 -8 10 -11 10 -2 0
-4 -4 -4 -10z"/>
<path d="M4804 795 c3 -9 6 -19 6 -21 0 -2 7 -4 16 -4 22 0 13 34 -10 38 -14
3 -17 0 -12 -13z"/>
<path d="M4846 767 c-18 -13 -17 -15 12 -35 16 -12 33 -22 36 -22 11 0 6 21
-9 37 -8 8 -13 19 -10 24 9 13 -8 11 -29 -4z"/>
<path d="M4900 762 c0 -10 12 -22 26 -29 22 -10 25 -10 20 3 -3 9 -6 19 -6 24
0 4 -9 10 -20 13 -14 4 -20 0 -20 -11z"/>
<path d="M4960 776 c0 -2 7 -6 15 -10 8 -3 15 -1 15 4 0 6 -7 10 -15 10 -8 0
-15 -2 -15 -4z"/>
<path d="M5030 771 c0 -6 5 -13 10 -16 6 -3 10 1 10 9 0 9 -4 16 -10 16 -5 0
-10 -4 -10 -9z"/>
<path d="M5070 737 c0 -14 5 -29 10 -32 6 -3 10 -24 10 -45 0 -44 8 -70 21
-70 11 0 12 121 1 135 -4 6 -15 16 -24 24 -16 12 -18 11 -18 -12z"/>
<path d="M2424 703 c-8 -14 -7 -22 5 -35 15 -15 16 -14 16 18 0 38 -5 42 -21
17z"/>
<path d="M4858 703 c-19 -5 -24 -18 -9 -27 5 -4 11 0 14 6 3 9 9 7 20 -7 16
-20 16 -20 10 3 -6 26 -12 30 -35 25z"/>
<path d="M4929 686 c6 -7 9 -21 5 -29 -7 -19 25 -66 44 -67 8 0 12 4 10 8 -1
4 -12 29 -23 55 -11 26 -26 47 -34 47 -10 0 -11 -3 -2 -14z"/>
<path d="M5017 673 c-10 -9 -9 -23 2 -23 5 0 11 7 15 15 5 15 -5 20 -17 8z"/>
<path d="M2220 649 c0 -5 5 -7 10 -4 6 3 10 8 10 11 0 2 -4 4 -10 4 -5 0 -10
-5 -10 -11z"/>
<path d="M4827 643 c-12 -11 -8 -23 8 -23 8 0 15 -5 15 -12 0 -6 2 -9 5 -7 6
7 -6 49 -14 49 -4 0 -11 -3 -14 -7z"/>
<path d="M2250 625 c0 -8 5 -15 10 -15 6 0 10 7 10 15 0 8 -4 15 -10 15 -5 0
-10 -7 -10 -15z"/>
<path d="M4987 567 c-3 -8 1 -24 9 -36 9 -12 13 -30 9 -40 -4 -14 0 -23 14
-30 30 -16 41 -13 41 12 0 22 36 54 55 48 6 -1 2 6 -8 16 -14 14 -19 15 -26 5
-12 -20 -64 -9 -77 17 -9 17 -13 19 -17 8z"/>
<path d="M5090 576 c0 -2 7 -6 15 -10 8 -3 15 -1 15 4 0 6 -7 10 -15 10 -8 0
-15 -2 -15 -4z"/>
<path d="M190 430 c0 -5 5 -10 10 -10 6 0 10 5 10 10 0 6 -4 10 -10 10 -5 0
-10 -4 -10 -10z"/>
<path d="M1760 225 c0 -16 79 -169 103 -199 14 -17 30 -27 41 -25 16 3 11 13
-29 62 -26 32 -63 84 -81 115 -19 31 -34 52 -34 47z"/>
</g>
</svg>
